<!-- Postgres1st logo — extracted from the provided postgres1st.svg (wordmark cropped out, coordinate precision trimmed to 2dp). -->
<svg width="141" height="48" viewBox="0 0 141 48" fill="none" xmlns="http://www.w3.org/2000/svg">
  <g transform="translate(47, 1.2835) scale(0.261111) translate(-46, -42)">
<path d="M0 0 C4.96 2.00 10.25 2.73 15.50 3.65 C19.18 4.5 19.18 4.5 22.51 6.12 C27.37 7.94 31.22 7.47 36.31 7 C51.13 5.98 63.07 8.94 74.93 18.25 C81.87 24.63 86.25 32.63 89.18 41.5 C89.80 43.35 89.80 43.35 90.43 45.25 C93.44 58.67 90.32 71.53 84.13 83.49 C80.19 89.56 74.81 94.24 69.45 99.05 C67.92 100.79 67.30 102.37 66.56 104.56 C65.84 106.62 65.16 108.54 64.18 110.5 C64.05 112.79 63.95 115.08 63.87 117.37 C63.13 130.88 58.65 140.48 48.87 149.75 C40.87 156.61 32.50 158.81 22.10 158.72 C16.83 158.31 11.77 156.86 7.08 154.39 C5.08 153.28 5.08 153.28 2.18 153.5 C2.27 154.40 2.35 155.31 2.43 156.25 C2.18 159.5 2.18 159.5 0.56 161.87 C-2.49 163.96 -4.18 164.04 -7.81 163.5 C-10.28 161.88 -10.73 160.77 -11.56 157.93 C-11.81 155.5 -11.81 155.5 -10.81 153.5 C-11.73 153.29 -12.65 153.08 -13.60 152.87 C-26.78 149.66 -38.57 144.68 -48.81 135.5 C-49.63 134.77 -50.45 134.04 -51.30 133.29 C-60.68 124.48 -66.25 114.58 -70.53 102.55 C-71.82 99.47 -73.31 97.15 -75.31 94.5 C-79.44 88.98 -81.67 83.01 -83.81 76.5 C-84.17 75.43 -84.54 74.36 -84.92 73.25 C-88.95 56.23 -85.47 38.08 -76.65 23.15 C-66.17 8.04 -52.01 -1.20 -33.87 -4.81 C-22.41 -6.46 -10.67 -4.38 0 0 Z " fill="#423795" transform="translate(132.81,50.5)"/>
<path d="M0 0 C0.86 0.57 1.73 1.15 2.62 1.75 C9.15 7.93 13.20 15.54 16 24 C16.41 25.23 16.82 26.47 17.25 27.75 C20.26 41.17 17.14 54.03 10.94 65.99 C7.01 72.06 1.62 76.74 -3.73 81.55 C-5.25 83.29 -5.88 84.87 -6.62 87.06 C-7.33 89.12 -8.02 91.04 -9 93 C-9.13 95.29 -9.23 97.58 -9.31 99.87 C-10.04 113.38 -14.53 122.98 -24.31 132.25 C-32.31 139.11 -40.69 141.32 -51.08 141.22 C-57.89 140.70 -64.05 138.28 -70 135 C-70 134.01 -70 133.02 -70 132 C-70.66 132 -71.32 132 -72 132 C-72 131.34 -72 130.68 -72 130 C-72.66 130 -73.32 130 -74 130 C-74 129.34 -74 128.68 -74 128 C-74.66 128 -75.32 128 -76 128 C-76 127.34 -76 126.68 -76 126 C-76.66 126 -77.32 126 -78 126 C-78 125.34 -78 124.68 -78 124 C-78.66 124 -79.32 124 -80 124 C-80 122.02 -80 120.04 -80 118 C-81.32 118 -82.64 118 -84 118 C-84 116.02 -84 114.04 -84 112 C-84.66 112 -85.32 112 -86 112 C-86 107.71 -86 103.42 -86 99 C-86.66 99 -87.32 99 -88 99 C-88.26 92.04 -87.61 85.76 -86 79 C-87.46 83.38 -88.08 87.11 -88.25 91.75 C-88.45 94.59 -88.45 94.59 -89 97 C-91.84 99.11 -93.46 100 -97 100 C-97.19 99.24 -97.38 98.48 -97.58 97.69 C-97.84 96.70 -98.10 95.71 -98.37 94.68 C-98.63 93.70 -98.88 92.71 -99.14 91.69 C-99.91 88.81 -99.91 88.81 -102 86 C-100.01 85.57 -98.02 85.15 -96.04 84.73 C-92.07 83.31 -90.55 80.48 -88.81 76.81 C-88.46 76.09 -88.12 75.38 -87.76 74.64 C-87.51 74.10 -87.26 73.55 -87 73 C-83.24 74.25 -82.76 75.93 -80.97 79.30 C-80.04 81.08 -80.04 81.08 -78.43 82.56 C-76.29 84.70 -75.26 87.28 -74 90 C-73.67 89.34 -73.34 88.68 -73 88 C-73.66 88 -74.32 88 -75 88 C-75.06 87.27 -75.12 86.55 -75.18 85.81 C-76.24 82.15 -78.20 80.50 -81 78 C-77.66 74.66 -74.33 71.33 -71 68 C-73.64 68 -76.28 68 -79 68 C-79 67.34 -79 66.68 -79 66 C-77.39 65.97 -75.79 65.95 -74.18 65.93 C-73.29 65.92 -72.40 65.91 -71.48 65.90 C-69 66 -69 66 -66 67 C-66 66.34 -66 65.68 -66 65 C-65.01 65 -64.02 65 -63 65 C-63.49 66.98 -63.49 66.98 -64 69 C-64.66 69 -65.32 69 -66 69 C-66 70.32 -66 71.64 -66 73 C-54.20 68.90 -54.20 68.90 -46 60 C-45.16 52.43 -45.92 47.03 -49.70 40.44 C-51.06 37.88 -51.81 35.48 -52.56 32.68 C-53.65 28.69 -55.07 26.03 -58 23 C-55.44 24.05 -54.20 24.65 -52.75 27.06 C-51.10 29.30 -51.10 29.30 -48.08 29.39 C-47.00 29.34 -45.92 29.29 -44.81 29.25 C-43.72 29.21 -42.63 29.17 -41.51 29.14 C-40.68 29.09 -39.85 29.04 -39 29 C-39.54 27.53 -39.54 27.53 -40.09 26.04 C-40.56 24.75 -41.03 23.47 -41.5 22.18 C-41.73 21.54 -41.97 20.90 -42.22 20.24 C-43.27 17.35 -44 15.09 -44 12 C-44.66 12 -45.32 12 -46 12 C-46.99 9.03 -47.98 6.06 -49 3 C-49.66 3 -50.32 3 -51 3 C-51 2.34 -51 1.68 -51 1 C-51.66 1 -52.32 1 -53 1 C-53.49 -1.47 -53.49 -1.47 -54 -4 C-50.91 -5.76 -49.76 -6 -46 -6 C-46 -6.99 -46 -7.98 -46 -9 C-28.56 -12.45 -14.42 -10.67 0 0 Z " fill="#D8557F" transform="translate(206,68)"/>
<path d="M0 0 C0.86 0.57 1.73 1.15 2.62 1.75 C9.15 7.93 13.20 15.54 16 24 C16.41 25.23 16.82 26.47 17.25 27.75 C20.25 41.17 17.14 54.03 10.94 65.99 C6.82 72.35 -0.59 81.70 -8.14 83.51 C-10.09 83.67 -12.04 83.83 -14 84 C-14 83.34 -14 82.68 -14 82 C-14.66 82 -15.32 82 -16 82 C-16.66 80.02 -17.32 78.04 -18 76 C-18.66 76 -19.32 76 -20 76 C-20 75.34 -20 74.68 -20 74 C-20.66 74 -21.32 74 -22 74 C-22 73.34 -22 72.68 -22 72 C-23.14 71.59 -23.14 71.59 -24.31 71.18 C-26.90 70.04 -28.12 69.05 -30 67 C-30.66 66.67 -31.32 66.34 -32 66 C-32 65.34 -32 64.68 -32 64 C-33.98 64 -35.96 64 -38 64 C-37.01 63.50 -37.01 63.50 -36 63 C-35.73 62.19 -35.46 61.39 -35.18 60.56 C-33.59 55.79 -31.30 51.45 -29 47 C-28.01 47 -27.02 47 -26 47 C-27.12 38.63 -27.12 38.63 -32 32 C-33.13 31.69 -34.26 31.38 -35.43 31.06 C-38.59 29.92 -39.04 28.91 -40.56 25.80 C-44 16.74 -44 16.74 -44 12 C-44.66 12 -45.32 12 -46 12 C-46.99 9.03 -47.98 6.06 -49 3 C-49.66 3 -50.32 3 -51 3 C-51 2.34 -51 1.68 -51 1 C-51.66 1 -52.32 1 -53 1 C-53.33 -0.65 -53.66 -2.3 -54 -4 C-50.91 -5.76 -49.76 -6 -46 -6 C-46 -6.99 -46 -7.98 -46 -9 C-28.56 -12.45 -14.42 -10.67 0 0 Z " fill="#D59B5C" transform="translate(206,68)"/>
<path d="M0 0 C5.14 4.73 7.66 9.89 9.31 16.60 C9.99 18.99 10.92 20.75 12.18 22.87 C14.86 28.04 15.11 33.33 14 39 C10.75 45.04 5.38 48.76 -1 51 C-4.5 51.75 -4.5 51.75 -7 52 C-7 50.68 -7 49.36 -7 48 C-6.34 47.67 -5.68 47.34 -5 47 C-4.67 46.01 -4.34 45.02 -4 44 C-4.99 44 -5.98 44 -7 44 C-7 44.66 -7 45.32 -7 46 C-11.29 45.67 -15.58 45.34 -20 45 C-20 45.66 -20 46.32 -20 47 C-19.34 46.67 -18.68 46.34 -18 46 C-16.00 45.96 -13.99 45.95 -12 46 C-12 46.99 -12 47.98 -12 49 C-13.46 50.26 -14.93 51.53 -16.46 52.72 C-18.32 54.26 -19.66 55.99 -21 58 C-19.02 59.32 -17.04 60.64 -15 62 C-15.33 63.65 -15.66 65.3 -16 67 C-15.34 67 -14.68 67 -14 67 C-14.66 68.32 -15.32 69.64 -16 71 C-16.34 70.12 -16.34 70.12 -16.69 69.24 C-18.88 64.01 -21.26 60.23 -25 56 C-25.33 55.01 -25.66 54.02 -26 53 C-26.99 52.50 -26.99 52.50 -28 52 C-28.26 52.88 -28.53 53.77 -28.81 54.68 C-30.88 60.48 -30.88 60.48 -33 63 C-35.92 64.30 -38.90 65.20 -42 66 C-41.52 66.47 -41.05 66.94 -40.56 67.43 C-38.31 71.11 -38.26 74.76 -38 79 C-37.05 78.50 -36.10 78.01 -35.12 77.5 C-32 76 -32 76 -30 76 C-30.05 74.94 -30.05 74.94 -30.10 73.87 C-30.28 67.44 -29.65 62.86 -27 57 C-25.83 60.49 -26.48 62.28 -27.48 65.74 C-28.03 68.13 -28.07 70.30 -28.12 72.75 C-28.38 75.51 -28.56 76.59 -30.62 78.49 C-33.91 80.30 -36.48 80.98 -40.25 81.12 C-44.21 79.50 -45.22 77.89 -47 74 C-47.31 70.63 -47.23 67.36 -47 64 C-43.34 63.24 -39.68 62.59 -36 62 C-35.71 58.95 -35.71 58.95 -37.56 56.75 C-39.45 53.13 -38.84 50.90 -38 47 C-36 48.56 -36 48.56 -34 51 C-33.75 54.75 -33.75 54.75 -34 58 C-31.06 55.57 -30.62 53.68 -30 50 C-36.58 45.27 -42.03 41.59 -50 40 C-53.74 37.48 -54.39 33.17 -55.56 29.06 C-57.19 22.78 -57.19 22.78 -60 17 C-62.55 16.18 -62.55 16.18 -65 16 C-63.77 9.71 -59.95 6.62 -55 3 C-51.10 0.72 -47.44 0.27 -43 1 C-41.06 1.93 -41.06 1.93 -39.25 3.06 C-36.35 5.22 -36.35 5.22 -34.07 4.80 C-31.59 3.84 -29.66 2.54 -27.5 1 C-19.64 -4.59 -8.44 -4.91 0 0 Z " fill="#734498" transform="translate(147,89)"/>
<path d="M0 0 C2.55 1.05 3.79 1.65 5.24 4.07 C6.89 6.31 6.89 6.31 9.89 6.28 C11.55 6.17 11.55 6.17 13.25 6.06 C18.84 5.90 22.22 6.05 27 9 C31.61 13.86 32.12 17.41 32 24 C30.51 24.49 30.51 24.49 29 25 C27.64 27.51 26.45 29.95 25.31 32.56 C24.99 33.27 24.67 33.98 24.34 34.71 C23.55 36.47 22.77 38.23 22 40 C21.34 40 20.68 40 20 40 C19.67 40.99 19.34 41.98 19 43 C17.10 43.66 17.10 43.66 14.75 44.06 C8.96 45.17 4.24 47.31 -1 50 C-1 50.99 -1 51.98 -1 53 C-0.40 52.72 0.18 52.44 0.79 52.16 C9.39 48.21 9.39 48.21 13 48 C13.66 48.66 14.32 49.32 15 50 C14.93 52.37 14.93 52.37 14 55 C11.43 57.31 11.43 57.31 9 59 C9.80 59.30 10.60 59.61 11.43 59.93 C14 61 14 61 15 62 C15.59 68.03 15.34 72.77 12 78 C11.67 78.33 11.34 78.66 11 79 C9.14 78.91 9.14 78.91 6.81 78.62 C5.59 78.47 5.59 78.47 4.35 78.33 C2.45 78.06 0.56 77.70 -1.31 77.31 C-4.44 76.94 -5.27 77.59 -8 79 C-11.93 79.21 -15.21 78.94 -19 78 C-20.73 78.03 -20.73 78.03 -22.5 78.06 C-25.89 78.00 -27.14 77.59 -30 76 C-30.26 69.04 -29.61 62.76 -28 56 C-29.46 60.38 -30.08 64.11 -30.25 68.75 C-30.45 71.59 -30.45 71.59 -31 74 C-33.84 76.11 -35.46 77 -39 77 C-39.19 76.24 -39.38 75.48 -39.58 74.69 C-39.84 73.70 -40.10 72.71 -40.37 71.68 C-40.63 70.70 -40.88 69.71 -41.14 68.69 C-41.91 65.81 -41.91 65.81 -44 63 C-42.01 62.57 -40.02 62.15 -38.04 61.73 C-34.07 60.31 -32.55 57.48 -30.81 53.81 C-30.46 53.09 -30.12 52.38 -29.76 51.64 C-29.51 51.10 -29.26 50.55 -29 50 C-25.24 51.25 -24.76 52.93 -22.97 56.30 C-22.04 58.08 -22.04 58.08 -20.43 59.56 C-18.29 61.70 -17.26 64.28 -16 67 C-15.67 66.34 -15.34 65.68 -15 65 C-15.66 65 -16.32 65 -17 65 C-17.06 64.27 -17.12 63.55 -17.18 62.81 C-18.24 59.15 -20.20 57.50 -23 55 C-19.66 51.66 -16.33 48.33 -13 45 C-15.64 45 -18.28 45 -21 45 C-21 44.34 -21 43.68 -21 43 C-19.39 42.97 -17.79 42.95 -16.18 42.93 C-15.29 42.92 -14.40 42.91 -13.48 42.90 C-11 43 -11 43 -8 44 C-8 43.34 -8 42.68 -8 42 C-7.01 42 -6.02 42 -5 42 C-5.33 43.32 -5.66 44.64 -6 46 C-6.66 46 -7.32 46 -8 46 C-8 47.32 -8 48.64 -8 50 C3.79 45.90 3.79 45.90 12 37 C12.83 29.43 12.07 24.03 8.29 17.44 C6.93 14.88 6.18 12.48 5.43 9.68 C4.34 5.69 2.92 3.03 0 0 Z " fill="#F4B6CB" transform="translate(148,91)"/>
<path d="M0 0 C0.86 0.57 1.73 1.15 2.62 1.75 C9.15 7.93 13.20 15.54 16 24 C16.41 25.23 16.82 26.47 17.25 27.75 C20.26 41.17 17.13 54.01 10.96 65.98 C7.43 71.41 2.77 75.68 -2 80 C-2.99 79.67 -3.98 79.34 -5 79 C-4.85 78.35 -4.71 77.70 -4.56 77.03 C-3.07 69.71 -2.75 62.76 -2.87 55.31 C-2.88 54.21 -2.89 53.12 -2.90 51.99 C-2.92 49.32 -2.95 46.66 -3 44 C-3.66 44 -4.32 44 -5 44 C-5.09 43.38 -5.19 42.76 -5.29 42.12 C-7.06 32.12 -10.97 24.69 -16.60 16.28 C-18 14 -18 14 -18 12 C-18.55 11.79 -19.11 11.58 -19.68 11.37 C-22.97 9.42 -24.70 7.05 -27 4 C-27 3.34 -27 2.68 -27 2 C-28.11 1.84 -28.11 1.84 -29.25 1.68 C-32.19 0.95 -33.78 0.05 -36 -2 C-36 -2.66 -36 -3.32 -36 -4 C-38.31 -4.66 -40.62 -5.32 -43 -6 C-43 -6.66 -43 -7.32 -43 -8 C-42.01 -8 -41.02 -8 -40 -8 C-40 -8.66 -40 -9.32 -40 -10 C-25.22 -13.09 -11.85 -8.77 0 0 Z " fill="#F7B45E" transform="translate(206,68)"/>
<path d="M0 0 C0 0.66 0 1.32 0 2 C-1.06 2.07 -1.06 2.07 -2.16 2.14 C-7.70 2.58 -12.68 3.26 -18 5 C-20.20 5.66 -22.41 6.33 -24.62 7 C-28.49 8.17 -32.26 9.44 -36 11 C-36 11.66 -36 12.32 -36 13 C-38.65 14.07 -41.28 15.09 -44 16 C-44 16.66 -44 17.32 -44 18 C-45.72 19.19 -47.44 20.38 -49.18 21.55 C-51.02 23.01 -52.07 24.32 -53.31 26.31 C-53.86 27.19 -54.42 28.08 -55 29 C-55.66 29 -56.32 29 -57 29 C-57 29.66 -57 30.32 -57 31 C-57.66 31 -58.32 31 -59 31 C-59.22 31.82 -59.45 32.65 -59.68 33.5 C-60.76 36.38 -61.75 38.25 -63.43 40.75 C-66.36 45.24 -67.62 49.86 -69 55 C-69.37 56.03 -69.74 57.06 -70.12 58.12 C-72.25 65.11 -72.15 72.32 -72.12 79.56 C-72.12 80.46 -72.13 81.37 -72.13 82.31 C-72.12 87.31 -71.85 92.06 -71 97 C-78.98 90.42 -83.59 79.07 -85 69 C-86.64 49.13 -83.44 31.04 -70.31 15.37 C-54.44 -2.61 -21.96 -14.64 0 0 Z " fill="#B74C9C" transform="translate(132,51)"/>
<path d="M0 0 C2 0 2 0 4.5 2.43 C5.32 3.28 6.15 4.12 7 5 C7.66 5.33 8.32 5.66 9 6 C9 6.66 9 7.32 9 8 C9.66 8 10.32 8 11 8 C11 8.66 11 9.32 11 10 C11.79 10.15 11.79 10.15 12.59 10.31 C15.71 11.20 18.49 12.57 21.43 13.93 C31.98 18.59 43.57 20.57 55 18 C55.66 17.01 56.32 16.02 57 15 C57 19.29 57 23.58 57 28 C57.66 28 58.32 28 59 28 C59 29.98 59 31.96 59 34 C60.32 34 61.64 34 63 34 C63 35.98 63 37.96 63 40 C63.66 40 64.32 40 65 40 C65 40.66 65 41.32 65 42 C65.66 42 66.32 42 67 42 C67 42.66 67 43.32 67 44 C67.66 44 68.32 44 69 44 C69 44.66 69 45.32 69 46 C69.66 46 70.32 46 71 46 C71 46.66 71 47.32 71 48 C71.66 48 72.32 48 73 48 C72.65 56.97 72.65 56.97 70.31 60.62 C67.28 62.42 65.46 62.51 62 62 C59.53 60.38 59.08 59.27 58.25 56.43 C58 54 58 54 59 52 C58.07 51.79 57.15 51.58 56.21 51.37 C43.02 48.16 31.23 43.18 21 34 C20.17 33.27 19.35 32.54 18.51 31.79 C10.15 23.94 4.08 14.73 0 4 C0 2.68 0 1.36 0 0 Z " fill="#476AB3" transform="translate(63,152)"/>
<path d="M0 0 C2.36 2.46 4.23 5.08 6 8 C4.68 8.33 3.36 8.66 2 9 C2.99 10.48 2.99 10.48 4 12 C4 13.32 4 14.64 4 16 C2 15 -0 14 -2 13 C-1.67 11.68 -1.34 10.36 -1 9 C-1.66 8.67 -2.32 8.34 -3 8 C-2.34 7.67 -1.68 7.34 -1 7 C-0.01 7.49 -0.01 7.49 1 8 C0.50 7.07 0.50 7.07 0 6.12 C-1 4 -1 4 -1 2 C-7.36 -1.02 -14.14 -0.71 -21 0 C-26.19 1.87 -30.13 5.29 -33 10 C-34.09 12.67 -35.05 15.36 -35.98 18.09 C-36.95 20.86 -38.07 23.50 -39.25 26.18 C-41.09 30.91 -42.07 33.96 -41 39 C-36.83 43.47 -31.56 46.57 -26 49 C-26.49 45.04 -26.49 45.04 -27 41 C-25.35 41 -23.7 41 -22 41 C-22.99 41.49 -22.99 41.49 -24 42 C-23.88 43.72 -23.75 45.45 -23.62 47.18 C-23.52 48.63 -23.52 48.63 -23.41 50.10 C-22.98 53.07 -22.35 55.32 -21 58 C-17.98 60.31 -17.98 60.31 -15 62 C-15.33 63.65 -15.66 65.3 -16 67 C-15.34 67 -14.68 67 -14 67 C-14.66 68.32 -15.32 69.64 -16 71 C-16.34 70.12 -16.34 70.12 -16.69 69.24 C-18.88 64.01 -21.26 60.23 -25 56 C-25.33 55.01 -25.66 54.02 -26 53 C-26.99 52.50 -26.99 52.50 -28 52 C-28.26 52.88 -28.53 53.77 -28.81 54.68 C-30.88 60.48 -30.88 60.48 -33 63 C-35.92 64.30 -38.90 65.20 -42 66 C-41.52 66.47 -41.05 66.94 -40.56 67.43 C-38.31 71.11 -38.26 74.76 -38 79 C-37.05 78.50 -36.10 78.01 -35.12 77.5 C-32 76 -32 76 -30 76 C-30.05 74.94 -30.05 74.94 -30.10 73.87 C-30.28 67.44 -29.65 62.86 -27 57 C-25.83 60.49 -26.48 62.28 -27.48 65.74 C-28.03 68.13 -28.07 70.30 -28.12 72.75 C-28.38 75.51 -28.56 76.59 -30.62 78.49 C-33.91 80.30 -36.48 80.98 -40.25 81.12 C-44.21 79.50 -45.22 77.89 -47 74 C-47.31 70.63 -47.23 67.36 -47 64 C-43.34 63.24 -39.68 62.59 -36 62 C-35.71 58.95 -35.71 58.95 -37.56 56.75 C-39.45 53.13 -38.84 50.90 -38 47 C-36 48.56 -36 48.56 -34 51 C-33.75 54.75 -33.75 54.75 -34 58 C-31.06 55.57 -30.62 53.68 -30 50 C-36.58 45.27 -42.03 41.59 -50 40 C-53.74 37.48 -54.39 33.17 -55.56 29.06 C-57.19 22.78 -57.19 22.78 -60 17 C-62.55 16.18 -62.55 16.18 -65 16 C-63.77 9.71 -59.95 6.62 -55 3 C-51.10 0.72 -47.44 0.27 -43 1 C-41.06 1.93 -41.06 1.93 -39.25 3.06 C-36.35 5.22 -36.35 5.22 -34.07 4.80 C-31.59 3.84 -29.66 2.54 -27.5 1 C-19.65 -4.58 -8.42 -4.92 0 0 Z " fill="#C8C2EE" transform="translate(147,89)"/>
<path d="M0 0 C0.66 0 1.32 0 2 0 C2.71 11.13 1.05 21.32 -6.24 30.12 C-14.04 38.45 -21.88 44.27 -33.54 45.20 C-40.83 45.33 -47.42 44.28 -54 41 C-54 40.01 -54 39.02 -54 38 C-52.53 37.70 -52.53 37.70 -51.04 37.41 C-49.13 37.02 -49.13 37.02 -47.18 36.62 C-45.92 36.36 -44.65 36.11 -43.35 35.85 C-39.89 35.17 -39.89 35.17 -37 33 C-34.31 32.87 -34.31 32.87 -32 33 C-32 32.34 -32 31.68 -32 31 C-26.25 28 -26.25 28 -24 28 C-24 27.34 -24 26.68 -24 26 C-23.01 25.67 -22.02 25.34 -21 25 C-20.48 24.48 -19.96 23.96 -19.43 23.43 C-18.96 22.96 -18.48 22.48 -18 22 C-17.34 22 -16.68 22 -16 22 C-16 21.34 -16 20.68 -16 20 C-15.19 19.75 -14.39 19.50 -13.56 19.25 C-10.82 18.27 -10.82 18.27 -10.18 15.87 C-10.09 14.94 -10.09 14.94 -10 14 C-9.34 14 -8.68 14 -8 14 C-7.81 13.04 -7.81 13.04 -7.62 12.06 C-7.41 11.38 -7.21 10.70 -7 10 C-6.34 9.67 -5.68 9.34 -5 9 C-4.67 8.01 -4.34 7.02 -4 6 C-3.34 6 -2.68 6 -2 6 C-1.34 4.02 -0.68 2.04 0 0 Z " fill="#F17384" transform="translate(194,164)"/>
<path d="M0 0 C2.55 1.05 3.79 1.65 5.24 4.07 C6.89 6.31 6.89 6.31 9.89 6.28 C10.99 6.21 12.10 6.13 13.25 6.06 C18.84 5.90 22.22 6.05 27 9 C31.61 13.86 32.12 17.41 32 24 C31.01 24.33 30.02 24.66 29 25 C27.64 27.51 26.45 29.95 25.31 32.56 C24.99 33.27 24.67 33.98 24.34 34.71 C23.55 36.47 22.77 38.23 22 40 C21.34 40 20.68 40 20 40 C19.67 40.99 19.34 41.98 19 43 C17.10 43.66 17.10 43.66 14.75 44.06 C8.96 45.17 4.24 47.31 -1 50 C-1 50.99 -1 51.98 -1 53 C2.3 52.01 5.6 51.02 9 50 C8.01 52.47 8.01 52.47 7 55 C6.67 54.34 6.34 53.68 6 53 C5.01 53.49 5.01 53.49 4 54 C-4.65 54.91 -4.65 54.91 -8.56 52.25 C-9.94 50.08 -10.48 48.48 -11 46 C-13.28 44.85 -14.59 44.89 -17.12 44.93 C-19.04 44.96 -19.04 44.96 -21 45 C-21 44.34 -21 43.68 -21 43 C-19.39 42.97 -17.79 42.95 -16.18 42.93 C-14.84 42.92 -14.84 42.92 -13.48 42.90 C-11 43 -11 43 -8 44 C-8 43.34 -8 42.68 -8 42 C-7.01 42 -6.02 42 -5 42 C-5.33 43.32 -5.66 44.64 -6 46 C-6.66 46 -7.32 46 -8 46 C-8 47.32 -8 48.64 -8 50 C3.79 45.90 3.79 45.90 12 37 C12.83 29.43 12.07 24.03 8.29 17.44 C6.93 14.88 6.18 12.48 5.43 9.68 C4.34 5.69 2.92 3.03 0 0 Z " fill="#EAB2DA" transform="translate(148,91)"/>
<path d="M0 0 C-0.94 5.34 -0.94 5.34 -2 8 C-5.27 10.12 -8.16 10.21 -12 10 C-12.33 11.65 -12.66 13.3 -13 15 C-12.34 15 -11.68 15 -11 15 C-11 14.34 -11 13.68 -11 13 C-10.34 13.33 -9.68 13.66 -9 14 C-9 14.66 -9 15.32 -9 16 C-9.99 16.33 -10.98 16.66 -12 17 C-11.67 18.32 -11.34 19.64 -11 21 C-12.45 21.46 -12.45 21.46 -13.93 21.93 C-16.84 22.69 -16.84 22.69 -18 24 C-18.07 25.35 -18.08 26.70 -18.06 28.06 C-18.04 29.36 -18.02 30.66 -18 32 C-16.94 32.08 -15.89 32.16 -14.81 32.25 C-10.69 33.05 -8.89 34.01 -6 37 C-6 37.99 -6 38.98 -6 40 C-2.92 41.07 -2.92 41.07 0.62 41.87 C1.73 42.24 2.85 42.61 4 43 C4.33 43.99 4.66 44.98 5 46 C1.7 46 -1.6 46 -5 46 C-5 46.66 -5 47.32 -5 48 C-4.01 47.50 -4.01 47.50 -3 47 C-1.00 46.96 1.00 46.95 3 47 C3 47.99 3 48.98 3 50 C1.53 51.27 0.06 52.54 -1.49 53.71 C-3.27 55.11 -3.27 55.11 -5 58 C-6.48 57.50 -6.48 57.50 -8 57 C-9.04 53.85 -9.10 51.61 -9.06 48.31 C-9.05 47.31 -9.04 46.32 -9.03 45.30 C-9.02 44.54 -9.01 43.78 -9 43 C-10.48 42.50 -10.48 42.50 -12 42 C-11.67 42.66 -11.34 43.32 -11 44 C-10.96 45.99 -10.95 48.00 -11 50 C-14.39 49.36 -16.71 48.06 -19.56 46.12 C-20.70 45.35 -20.70 45.35 -21.87 44.57 C-23.81 43.13 -25.47 41.86 -27 40 C-27.71 34.14 -26.55 30.12 -24.19 24.78 C-22.93 21.94 -22.93 21.94 -21.90 18.71 C-19.04 10.27 -15.73 5.27 -7.95 0.83 C-5.26 -0.31 -2.88 -0.13 0 0 Z " fill="#453B92" transform="translate(132,88)"/>
<path d="M0 0 C0.66 0 1.32 0 2 0 C2.33 1.65 2.66 3.3 3 5 C3.66 5 4.32 5 5 5 C5 5.66 5 6.32 5 7 C5.66 7 6.32 7 7 7 C9.43 10.36 10 11.73 10 16 C10.66 16 11.32 16 12 16 C12.64 17.89 13.29 19.79 13.93 21.68 C14.29 22.74 14.65 23.79 15.02 24.88 C15.87 27.59 16.50 30.21 17 33 C12.96 33.70 9.09 34.22 5 34 C2.25 31.31 2.25 31.31 1.19 29.62 C-2.52 24.54 -10.20 23.24 -16 22 C-16 21.01 -16 20.02 -16 19 C-15.34 19 -14.68 19 -14 19 C-13.34 17.35 -12.68 15.7 -12 14 C-11.34 14 -10.68 14 -10 14 C-9.75 13.25 -9.50 12.51 -9.25 11.75 C-7.89 8.76 -6.48 7.10 -4 5 C-3.34 5 -2.68 5 -2 5 C-2 4.34 -2 3.68 -2 3 C-1.34 3 -0.68 3 0 3 C0 2.01 0 1.02 0 0 Z " fill="#744399" transform="translate(150,64)"/>
<path d="M0 0 C3.31 1.34 5.47 2.47 8 5 C7.24 10.29 5.82 14.56 3.5 19.37 C0.89 24.80 -0.22 30.05 -1 36 C-5.79 35.24 -5.79 35.24 -7.62 33.06 C-8.81 30.40 -9.60 27.97 -10.37 25.18 C-11.77 20.25 -13.80 16.03 -17 12 C-17.66 11.67 -18.32 11.34 -19 11 C-17.32 5.83 -14.94 3.97 -10.44 1.17 C-6.56 -0.68 -4.26 -0.62 0 0 Z " fill="#443A90" transform="translate(104,92)"/>
<path d="M0 0 C2 0 2 0 4.5 2.43 C5.32 3.28 6.15 4.12 7 5 C7.66 5.33 8.32 5.66 9 6 C9 6.66 9 7.32 9 8 C8.01 8.49 8.01 8.49 7 9 C7 9.66 7 10.32 7 11 C7.66 11.33 8.32 11.66 9 12 C9 13.32 9 14.64 9 16 C9.66 16 10.32 16 11 16 C13 19 13 19 13.87 21.56 C15.20 24.44 16.15 24.80 19 26 C19.33 26.66 19.66 27.32 20 28 C19.67 28.66 19.34 29.32 19 30 C19.99 29.67 20.98 29.34 22 29 C22.33 30.32 22.66 31.64 23 33 C24.98 33.33 26.96 33.66 29 34 C29 34.66 29 35.32 29 36 C29.66 36 30.32 36 31 36 C31 36.66 31 37.32 31 38 C31.66 38 32.32 38 33 38 C33 38.66 33 39.32 33 40 C33.57 40.13 34.14 40.26 34.73 40.40 C36.95 40.98 39.04 41.69 41.18 42.5 C41.88 42.75 42.57 43.01 43.29 43.28 C45 44 45 44 46 45 C48.32 45.36 50.66 45.70 53 46 C53 46.66 53 47.32 53 48 C57.62 48 62.24 48 67 48 C67 46.68 67 45.36 67 44 C67.66 44 68.32 44 69 44 C69 44.66 69 45.32 69 46 C69.66 46 70.32 46 71 46 C71 46.66 71 47.32 71 48 C71.66 48 72.32 48 73 48 C72.65 56.97 72.65 56.97 70.31 60.62 C67.28 62.42 65.46 62.51 62 62 C59.53 60.38 59.08 59.27 58.25 56.43 C58 54 58 54 59 52 C58.07 51.79 57.15 51.58 56.21 51.37 C43.02 48.16 31.23 43.18 21 34 C20.17 33.27 19.35 32.54 18.51 31.79 C10.15 23.94 4.08 14.73 0 4 C0 2.68 0 1.36 0 0 Z " fill="#4E68A2" transform="translate(63,152)"/>
<path d="M0 0 C1.90 0.71 1.90 0.71 4 2 C4.90 4.10 4.90 4.10 5.5 6.62 C6.38 10.06 7.36 12.83 9.18 15.87 C11.86 21.04 12.11 26.33 11 32 C7.75 38.04 2.38 41.76 -4 44 C-7.5 44.75 -7.5 44.75 -10 45 C-10 43.68 -10 42.36 -10 41 C-9.01 40.50 -9.01 40.50 -8 40 C-8.33 37.03 -8.66 34.06 -9 31 C-9.66 31 -10.32 31 -11 31 C-11.33 31.66 -11.66 32.32 -12 33 C-12.66 30.03 -13.32 27.06 -14 24 C-12.35 24.33 -10.7 24.66 -9 25 C-8.67 26.32 -8.34 27.64 -8 29 C-7.06 29.09 -7.06 29.09 -6.10 29.18 C-5.28 29.26 -4.46 29.35 -3.62 29.43 C-2.40 29.55 -2.40 29.55 -1.16 29.68 C1 30 1 30 3 31 C3.22 29.58 3.42 28.16 3.62 26.75 C3.74 25.96 3.85 25.17 3.97 24.35 C4.00 21.62 3.48 20.27 2 18 C-0.27 16.46 -2.55 15.22 -5 14 C-4.69 13.40 -4.38 12.80 -4.06 12.18 C-2.89 9.91 -2.89 9.91 -2 7 C-1.01 7.66 -0.02 8.32 1 9 C-0.07 6.08 -0.77 4.22 -3 2 C-2.01 1.34 -1.02 0.68 0 0 Z " fill="#724894" transform="translate(150,96)"/>
<path d="M0 0 C1.65 0.33 3.3 0.66 5 1 C5 1.66 5 2.32 5 3 C6.65 3.66 8.3 4.32 10 5 C10 5.66 10 6.32 10 7 C10.66 7 11.32 7 12 7 C12 7.66 12 8.32 12 9 C12.66 9 13.32 9 14 9 C16 12 16 12 16 15 C16.66 15 17.32 15 18 15 C18 15.99 18 16.98 18 18 C14.53 19.06 11.35 19.10 7.75 19.06 C6.67 19.05 5.59 19.04 4.48 19.03 C3.66 19.02 2.84 19.01 2 19 C2 19.66 2 20.32 2 21 C0.02 21 -1.96 21 -4 21 C-4 20.34 -4 19.68 -4 19 C-5.32 19 -6.64 19 -8 19 C-10.25 16.5 -10.25 16.5 -12 14 C-11.34 13.44 -10.68 12.88 -10 12.31 C-7.74 10.15 -7.74 10.15 -7.75 7.25 C-7.83 6.50 -7.91 5.76 -8 5 C-7.34 5 -6.68 5 -6 5 C-6 4.34 -6 3.68 -6 3 C-4.02 3 -2.04 3 0 3 C0 2.01 0 1.02 0 0 Z " fill="#F35F62" transform="translate(174,135)"/>
<path d="M0 0 C2.5 0.12 2.5 0.12 3.5 1.12 C3.66 3.31 3.77 5.49 3.87 7.68 C4.24 13.51 5.17 17.80 7.5 23.12 C7.87 24.78 8.23 26.44 8.5 28.12 C5.86 27.79 3.22 27.46 0.5 27.12 C0.17 26.13 -0.16 25.14 -0.5 24.12 C-4.05 21.84 -7.27 19.80 -11.5 19.12 C-12.83 11.72 -12.83 11.72 -11.37 9.12 C-8.96 7.84 -7.19 7.90 -4.5 8.12 C-5.16 6.47 -5.82 4.82 -6.5 3.12 C-5.51 2.46 -4.52 1.80 -3.5 1.12 C-2.5 0.12 -2.5 0.12 0 0 Z " fill="#47398D" transform="translate(125.5,100.87)"/>
<path d="M0 0 C9.48 0.42 18.63 6.12 25 13 C30.03 19.15 33.50 25.46 36 33 C36.41 34.23 36.82 35.47 37.25 36.75 C40.49 51.21 36.79 65.66 29 78 C26.78 80.37 24.65 82.09 22 84 C22.57 81.61 23.22 79.33 24 77 C24.66 77 25.32 77 26 77 C26 76.34 26 75.68 26 75 C27.48 74.01 27.48 74.01 29 73 C29.72 70.94 29.72 70.94 30 69 C30.66 69 31.32 69 32 69 C32 66.36 32 63.72 32 61 C32.66 61 33.32 61 34 61 C34 51.76 34 42.52 34 33 C33.34 33 32.68 33 32 33 C30.74 30.09 30 28.20 30 25 C28.68 24.67 27.36 24.34 26 24 C26 21.69 26 19.38 26 17 C24.68 17 23.36 17 22 17 C22 15.68 22 14.36 22 13 C20.68 13 19.36 13 18 13 C18 12.34 18 11.68 18 11 C17.13 10.84 17.13 10.84 16.25 10.68 C13.64 9.89 12.02 8.80 10 7 C10 6.34 10 5.68 10 5 C8.68 5 7.36 5 6 5 C6 4.34 6 3.68 6 3 C4.02 2.34 2.04 1.68 0 1 C0 0.67 0 0.34 0 0 Z " fill="#ECB66E" transform="translate(186,59)"/>
<path d="M0 0 C0.66 0.33 1.32 0.66 2 1 C2.73 3.31 3.40 5.64 4 8 C8.62 8 13.24 8 18 8 C18.33 9.65 18.66 11.3 19 13 C12.03 16.64 5.89 18.17 -2 17 C-5.32 15.36 -8.15 13.36 -11 11 C-7.61 6.86 -4.33 3.18 0 0 Z " fill="#DC4877" transform="translate(136,136)"/>
<path d="M0 0 C3.63 0 7.26 0 11 0 C11.35 11.47 10.76 21.82 8 33 C6.02 33.66 4.04 34.32 2 35 C2 34.34 2 33.68 2 33 C2.66 33 3.32 33 4 33 C6.47 24.26 5.16 17.48 1.11 9.52 C-0.40 6.08 -0.41 3.69 0 0 Z " fill="#7F4B91" transform="translate(157,99)"/>
<path d="M0 0 C3 1 3 1 4.23 2.79 C5.14 5.41 4.94 6.65 4.25 9.31 C4.05 10.09 3.85 10.86 3.64 11.67 C3.43 12.44 3.22 13.20 3 14 C2.80 14.70 2.61 15.41 2.41 16.14 C1.95 17.76 1.48 19.38 1 21 C0.67 21 0.34 21 0 21 C-0.09 15.84 0.15 11.08 1 6 C-0.46 10.38 -1.08 14.11 -1.25 18.75 C-1.45 21.59 -1.45 21.59 -2 24 C-4.84 26.11 -6.46 27 -10 27 C-10.19 26.24 -10.38 25.48 -10.58 24.69 C-10.84 23.70 -11.10 22.71 -11.37 21.68 C-11.63 20.70 -11.88 19.71 -12.14 18.69 C-12.91 15.81 -12.91 15.81 -15 13 C-13.01 12.57 -11.02 12.15 -9.04 11.73 C-5.07 10.31 -3.55 7.48 -1.81 3.81 C-1.46 3.09 -1.12 2.38 -0.76 1.64 C-0.51 1.10 -0.26 0.55 0 0 Z " fill="#4A418D" transform="translate(119,141)"/>
<path d="M0 0 C5.52 1.47 5.52 1.47 7.67 3.83 C8.27 4.87 8.27 4.87 8.87 5.93 C9.28 6.62 9.69 7.31 10.11 8.02 C11 10 11 10 11 13 C10.01 13.33 9.02 13.66 8 14 C6.40 17.10 5.03 20.23 3.69 23.45 C2.01 27.29 0.69 29.87 -3 32 C-2.53 28.25 -2.07 24.51 -1.5 20.78 C-0.93 16.54 -0.66 12.33 -0.43 8.06 C-0.39 7.28 -0.35 6.50 -0.30 5.70 C-0.20 3.80 -0.10 1.90 0 0 Z " fill="#C69572" transform="translate(168,100)"/>
<path d="M0 0 C0.33 0 0.66 0 1 0 C1.33 2.31 1.66 4.62 2 7 C1.01 7.66 0.02 8.32 -1 9 C-1.66 8.67 -2.32 8.34 -3 8 C-3 9.98 -3 11.96 -3 14 C-4.32 14 -5.64 14 -7 14 C-7 14.66 -7 15.32 -7 16 C-6.34 16 -5.68 16 -5 16 C-5.66 17.98 -6.32 19.96 -7 22 C-7.66 22 -8.32 22 -9 22 C-9 22.66 -9 23.32 -9 24 C-9.66 24 -10.32 24 -11 24 C-11 25.98 -11 27.96 -11 30 C-11.33 30 -11.66 30 -12 30 C-12.02 35.33 -12.04 40.67 -12.05 46.01 C-12.05 47.83 -12.06 49.64 -12.07 51.46 C-12.08 54.07 -12.09 56.68 -12.09 59.29 C-12.10 60.10 -12.10 60.91 -12.11 61.75 C-12.11 65.34 -11.97 68.54 -11 72 C-11.99 72.49 -11.99 72.49 -13 73 C-18.91 59.98 -17.77 38.36 -13.30 24.90 C-12.60 23.23 -11.80 21.61 -11 20 C-10.56 18.92 -10.13 17.85 -9.68 16.75 C-7.51 11.64 -4.70 6.84 -2 2 C-1.34 2 -0.68 2 0 2 C0 1.34 0 0.68 0 0 Z " fill="#51348C" transform="translate(75,80)"/>
<path d="M0 0 C0 0.66 0 1.32 0 2 C-3.3 2 -6.6 2 -10 2 C-9.34 1.67 -8.68 1.34 -8 1 C-8 0.34 -8 -0.32 -8 -1 C-13.44 -2.62 -19.11 -2.22 -24.75 -2.25 C-25.90 -2.27 -27.06 -2.29 -28.25 -2.31 C-34.90 -2.34 -39.94 -1.83 -46 1 C-46 1.66 -46 2.32 -46 3 C-47.98 3 -49.96 3 -52 3 C-52 3.66 -52 4.32 -52 5 C-53.65 5.66 -55.3 6.32 -57 7 C-56.67 7.66 -56.34 8.32 -56 9 C-56.76 9.14 -57.52 9.28 -58.31 9.43 C-61.08 9.96 -61.08 9.96 -64 11 C-64 11.66 -64 12.32 -64 13 C-64.66 13 -65.32 13 -66 13 C-66 13.66 -66 14.32 -66 15 C-66.66 15.33 -67.32 15.66 -68 16 C-68 16.99 -68 17.98 -68 19 C-68.99 19.33 -69.98 19.66 -71 20 C-71.10 20.57 -71.20 21.15 -71.31 21.75 C-72.40 25.33 -75.06 26.75 -78 29 C-74.92 17.96 -65.24 8.59 -55.50 2.90 C-39.43 -5.97 -16.45 -10.97 0 0 Z " fill="#9B508E" transform="translate(132,51)"/>
<path d="M0 0 C1.16 3.49 0.51 5.28 -0.48 8.74 C-1.03 11.13 -1.07 13.30 -1.12 15.75 C-1.38 18.51 -1.56 19.59 -3.62 21.49 C-6.91 23.30 -9.48 23.98 -13.25 24.12 C-17.21 22.50 -18.22 20.89 -20 17 C-20.31 13.63 -20.23 10.36 -20 7 C-17.29 6.44 -14.61 5.94 -11.87 5.56 C-8.81 5.15 -8.81 5.15 -6 3 C-6 3.99 -6 4.98 -6 6 C-10.45 7.48 -10.45 7.48 -15 9 C-14.52 9.47 -14.05 9.94 -13.56 10.43 C-11.31 14.11 -11.26 17.76 -11 22 C-10.05 21.50 -9.10 21.01 -8.12 20.5 C-5 19 -5 19 -3 19 C-3.05 17.94 -3.05 17.94 -3.10 16.87 C-3.28 10.44 -2.65 5.86 0 0 Z " fill="#C4BBF2" transform="translate(120,146)"/>
<path d="M0 0 C0.66 0 1.32 0 2 0 C2 0.66 2 1.32 2 2 C5.63 2 9.26 2 13 2 C13.60 11.23 13.60 11.23 10.87 14.68 C7.35 16.29 5.65 16.13 2 15 C0 13 0 13 -0.01 11.12 C0.09 10.42 0.20 9.72 0.31 9 C0.41 8.29 0.51 7.59 0.61 6.87 C1 5 1 5 2 3 C1.34 3 0.68 3 0 3 C0 2.01 0 1.02 0 0 Z " fill="#E3487A" transform="translate(131,153)"/>
<path d="M0 0 C4.87 3.62 4.87 3.62 6 7 C6.06 9.06 6.08 11.12 6.06 13.18 C6.05 14.27 6.04 15.36 6.03 16.48 C6.02 17.31 6.01 18.14 6 19 C4.56 19.08 3.12 19.13 1.68 19.18 C0.48 19.23 0.48 19.23 -0.73 19.29 C-3 19 -3 19 -4.78 17.71 C-6.73 14.96 -6.18 12.25 -6 9 C-5.01 10.48 -5.01 10.48 -4 12 C-3.79 11.21 -3.59 10.43 -3.37 9.62 C-3.10 8.61 -2.84 7.60 -2.56 6.56 C-2.29 5.55 -2.02 4.54 -1.75 3.50 C-1 1 -1 1 0 0 Z " fill="#D9497C" transform="translate(124,148)"/>
<path d="M0 0 C0 0.66 0 1.32 0 2 C0.66 2.33 1.32 2.66 2 3 C1.34 3 0.68 3 0 3 C0 3.99 0 4.98 0 6 C-1.98 6 -3.96 6 -6 6 C-6 6.66 -6 7.32 -6 8 C-6.66 8 -7.32 8 -8 8 C-7.67 9.65 -7.34 11.3 -7 13 C-8.65 14.32 -10.3 15.64 -12 17 C-11.34 14.03 -10.68 11.06 -10 8 C-14.97 7.71 -17.16 7.90 -21 11 C-24.25 11.68 -24.25 11.68 -27 12 C-27.33 11.01 -27.66 10.02 -28 9 C-21.87 4.89 -17.36 2.50 -10 2 C-9.29 1.64 -8.59 1.29 -7.87 0.93 C-5.23 -0.38 -2.90 -0.13 0 0 Z " fill="#EC6364" transform="translate(174,132)"/>
<path d="M0 0 C1.33 0.30 1.33 0.30 2.70 0.61 C3.37 0.78 4.05 0.95 4.75 1.12 C4.75 1.45 4.75 1.78 4.75 2.12 C4.03 2.18 3.32 2.24 2.59 2.30 C1.67 2.39 0.75 2.47 -0.18 2.56 C-1.56 2.68 -1.56 2.68 -2.96 2.80 C-5.21 2.88 -5.21 2.88 -6.25 4.12 C-8.58 4.16 -10.91 4.16 -13.25 4.12 C-13.25 5.44 -13.25 6.76 -13.25 8.12 C-14.57 8.12 -15.89 8.12 -17.25 8.12 C-17.25 6.80 -17.25 5.48 -17.25 4.12 C-20.55 4.45 -23.85 4.78 -27.25 5.12 C-27.25 6.11 -27.25 7.10 -27.25 8.12 C-26.26 8.45 -25.27 8.78 -24.25 9.12 C-24.58 12.09 -24.91 15.06 -25.25 18.12 C-25.91 18.12 -26.57 18.12 -27.25 18.12 C-27.25 16.14 -27.25 14.16 -27.25 12.12 C-27.91 12.12 -28.57 12.12 -29.25 12.12 C-29.25 8.16 -29.25 4.20 -29.25 0.12 C-19.97 0.02 -19.97 0.02 -17.25 0.12 C-16.92 0.45 -16.59 0.78 -16.25 1.12 C-11.62 1.50 -11.62 1.50 -7.34 0.05 C-4.54 -1.18 -2.95 -0.69 0 0 Z " fill="#D25982" transform="translate(149.25,167.87)"/>
<path d="M0 0 C1.93 1.12 1.93 1.12 3 3 C3.45 6.53 3.42 8.33 1.5 11.37 C1.00 11.91 0.51 12.44 0 13 C-4.45 12.01 -4.45 12.01 -9 11 C-10.32 3.65 -10.32 3.65 -9 1 C-5.89 -0.55 -3.41 -0.36 0 0 Z " fill="#B6B2CE" transform="translate(123,109)"/>
<path d="M0 0 C0.81 2.13 0.81 2.13 1 4 C-2.79 5.41 -5.94 6.43 -10 6 C-10.99 5.34 -11.98 4.68 -13 4 C-13 3.34 -13 2.68 -13 2 C-13.66 2 -14.32 2 -15 2 C-15 1.34 -15 0.68 -15 0 C-16.13 -0.28 -17.26 -0.57 -18.43 -0.87 C-19.61 -1.24 -20.78 -1.61 -22 -2 C-22.33 -2.66 -22.66 -3.32 -23 -4 C-15.96 -6.63 -6.27 -3.47 0 0 Z " fill="#4F649B" transform="translate(159,58)"/>
<path d="M0 0 C2.31 -0.32 2.31 -0.32 5 -0.25 C6.33 -0.22 6.33 -0.22 7.68 -0.20 C10 0 10 0 12 1 C12.32 4.53 12.41 6.39 10.37 9.37 C7.32 11.46 5.63 11.54 2 11 C-0.42 9.40 -0.91 8.26 -1.81 5.5 C-2 3 -2 3 0 0 Z " fill="#E1BEA2" transform="translate(123,203)"/>
<path d="M0 0 C2.66 0.99 3.77 1.52 5.01 4.13 C5.23 4.97 5.45 5.82 5.68 6.68 C5.92 7.57 6.16 8.46 6.40 9.37 C7.13 12.58 7.64 15.73 8 19 C3.16 19.56 0.82 17.80 -3 15 C-3.66 14.67 -4.32 14.34 -5 14 C-4.69 13.40 -4.38 12.80 -4.06 12.18 C-2.89 9.91 -2.89 9.91 -2 7 C-1.01 7.66 -0.02 8.32 1 9 C-0.07 6.08 -0.77 4.22 -3 2 C-2.01 1.34 -1.02 0.68 0 0 Z " fill="#744798" transform="translate(150,96)"/>
<path d="M0 0 C1.21 0.01 1.21 0.01 2.44 0.02 C3.37 0.04 3.37 0.04 4.31 0.06 C3.87 0.99 3.87 0.99 3.43 1.93 C1.89 6.22 1.12 10.59 0.31 15.06 C-6.56 13.18 -6.56 13.18 -7.68 12.06 C-7.75 10.20 -7.77 8.35 -7.75 6.5 C-7.74 5.48 -7.73 4.47 -7.72 3.43 C-7.71 2.65 -7.69 1.86 -7.68 1.06 C-4.80 0.10 -2.98 -0.04 0 0 Z " fill="#CE688B" transform="translate(153.68,152.93)"/>
<path d="M0 0 C3.73 0.49 5.81 0.87 9 3 C11.32 3.39 13.65 3.73 16 4 C16 4.66 16 5.32 16 6 C20.62 6 25.24 6 30 6 C30 4.68 30 3.36 30 2 C30.66 2 31.32 2 32 2 C32 2.66 32 3.32 32 4 C32.66 4 33.32 4 34 4 C34 4.66 34 5.32 34 6 C34.66 6 35.32 6 36 6 C36 6.99 36 7.98 36 9 C27.32 11.89 15.43 8.99 7 6 C3.87 3.93 3.87 3.93 2 2 C1.34 1.34 0.68 0.68 0 0 Z " fill="#516AA8" transform="translate(100,194)"/>
<path d="M0 0 C0.66 0 1.32 0 2 0 C1.34 3.50 0.49 6.88 -0.5 10.31 C-1.77 14.89 -2.47 19.28 -3 24 C-3.33 24.33 -3.66 24.66 -4 25 C-4.36 27.32 -4.70 29.66 -5 32 C-4.34 32 -3.68 32 -3 32 C-2.93 32.92 -2.87 33.85 -2.81 34.81 C-2.20 43.94 -2.20 43.94 -1 53 C-7.42 46.57 -6.49 34.91 -6.50 26.43 C-6.27 17.10 -4.18 8.37 0 0 Z " fill="#AB5798" transform="translate(53,80)"/>
<path d="M0 0 C1.06 0.01 2.13 0.03 3.23 0.05 C4.04 0.07 4.85 0.10 5.68 0.12 C1.23 6.24 -3.37 9.28 -10.81 10.87 C-12.05 10.99 -12.05 10.99 -13.31 11.12 C-13.31 9.80 -13.31 8.48 -13.31 7.12 C-12.65 6.79 -11.99 6.46 -11.31 6.12 C-11.31 4.80 -11.31 3.48 -11.31 2.12 C-7.38 0.27 -4.32 -0.09 0 0 Z " fill="#C7568F" transform="translate(153.31,129.87)"/>
<path d="M0 0 C0 0.99 0 1.98 0 3 C0.98 2.98 1.97 2.97 2.99 2.96 C4.27 2.95 5.55 2.94 6.87 2.93 C8.15 2.92 9.42 2.91 10.74 2.90 C14 3 14 3 16 4 C16 3.01 16 2.02 16 1 C19.3 0.67 22.6 0.34 26 0 C20.94 5.05 14.52 6.16 7.5 6.37 C1.36 6.20 -4.50 4.74 -10 2 C-10 1.01 -10 0.02 -10 -1 C-5.92 -1.92 -3.57 -2.33 0 0 Z " fill="#E37788" transform="translate(150,203)"/>
<path d="M0 0 C2.31 2.5 2.31 2.5 4 5 C2.92 7.91 2.22 9.77 0 12 C-2.80 12.36 -4.38 12.38 -6.81 10.87 C-8.55 8.12 -8.39 6.18 -8 3 C-5.92 -0.28 -3.73 -0.72 0 0 Z " fill="#5C6C97" transform="translate(217,150)"/>
<path d="M0 0 C2.36 2.46 4.23 5.08 6 8 C4.68 8.33 3.36 8.66 2 9 C2.66 9.99 3.32 10.98 4 12 C4 13.32 4 14.64 4 16 C2 15 0 14 -2 13 C-1.67 11.68 -1.34 10.36 -1 9 C-1.66 8.67 -2.32 8.34 -3 8 C-2.34 7.67 -1.68 7.34 -1 7 C-0.34 7.33 0.32 7.66 1 8 C0.50 7.07 0.50 7.07 0 6.12 C-1 4 -1 4 -1 2 C-7.35 -1.02 -14.14 -0.73 -21 0 C-24.12 1.23 -26.45 2.83 -29 5 C-29.99 5.66 -30.98 6.32 -32 7 C-32 6.01 -32 5.02 -32 4 C-30.17 2.42 -30.17 2.42 -27.75 0.87 C-26.56 0.09 -26.56 0.09 -25.35 -0.69 C-17.97 -4.77 -7.23 -4.23 0 0 Z " fill="#C1AFEC" transform="translate(147,89)"/>
<path d="M0 0 C-0.44 3.09 -0.97 5.91 -2 8.87 C-4.26 15.93 -4.15 23.21 -4.12 30.56 C-4.12 31.46 -4.13 32.37 -4.13 33.31 C-4.12 38.31 -3.85 43.06 -3 48 C-7.87 43.37 -7.87 43.37 -9 40 C-8.01 40 -7.02 40 -6 40 C-6.01 38.89 -6.03 37.78 -6.04 36.65 C-6.10 32.55 -6.13 28.45 -6.16 24.35 C-6.17 22.58 -6.20 20.80 -6.22 19.03 C-6.26 16.48 -6.27 13.93 -6.29 11.38 C-6.30 10.59 -6.32 9.79 -6.33 8.98 C-6.34 3.51 -6.34 3.51 -4.66 0.97 C-3 0 -3 0 0 0 Z " fill="#A44D9F" transform="translate(64,100)"/>
<path d="M0 0 C0.33 1.65 0.66 3.3 1 5 C-4.41 7.83 -8.40 9.14 -14.5 9.25 C-15.90 9.28 -15.90 9.28 -17.34 9.32 C-20.40 8.95 -21.73 8.03 -24 6 C-22.02 6 -20.04 6 -18 6 C-18 6.33 -18 6.66 -18 7 C-16.02 7 -14.04 7 -12 7 C-12 5.02 -12 3.04 -12 1 C-10.37 0.83 -8.75 0.66 -7.12 0.5 C-6.22 0.40 -5.31 0.31 -4.38 0.21 C-2 0 -2 0 0 0 Z " fill="#D0557D" transform="translate(154,144)"/>
<path d="M0 0 C2.56 0.31 2.56 0.31 4.37 1.5 C5.98 3.96 5.99 5.42 5.56 8.31 C4.37 10.12 4.37 10.12 2.56 11.31 C-0.31 11.74 -1.80 11.69 -4.31 10.18 C-5.43 8.31 -5.43 8.31 -5.25 5.25 C-4.27 1.73 -3.70 0.47 0 0 Z " fill="#D97D87" transform="translate(166.43,42.68)"/>
<path d="M0 0 C0.66 0.33 1.32 0.66 2 1 C2.74 10.70 -0.21 19.73 -6.41 27.24 C-7.20 28.11 -7.20 28.11 -8 29 C-8.53 29.60 -9.06 30.20 -9.61 30.82 C-11.18 32.5 -11.18 32.5 -14 35 C-14.99 35 -15.98 35 -17 35 C-16.67 33.68 -16.34 32.36 -16 31 C-14.68 31 -13.36 31 -12 31 C-11.89 30.36 -11.79 29.72 -11.68 29.06 C-11.46 28.38 -11.23 27.70 -11 27 C-10.01 26.67 -9.02 26.34 -8 26 C-8.10 25.25 -8.20 24.51 -8.31 23.75 C-8.20 22.84 -8.10 21.93 -8 21 C-6.79 20.10 -6.79 20.10 -5.56 19.18 C-2.71 16.75 -2.59 16.26 -2.18 12.75 C-2.12 11.51 -2.06 10.27 -2 9 C-1.34 9 -0.68 9 0 9 C0 6.03 0 3.06 0 0 Z " fill="#E57C89" transform="translate(194,167)"/>
<path d="M0 0 C1.98 0.99 1.98 0.99 4 2 C4 2.66 4 3.32 4 4 C5.32 4 6.64 4 8 4 C8 4.66 8 5.32 8 6 C9.98 6 11.96 6 14 6 C14 5.34 14 4.68 14 4 C21.92 3.50 21.92 3.50 30 3 C30 3.99 30 4.98 30 6 C28.68 6 27.36 6 26 6 C26 6.66 26 7.32 26 8 C22.70 8.05 19.41 8.09 16.12 8.12 C14.71 8.15 14.71 8.15 13.28 8.17 C12.38 8.18 11.49 8.18 10.57 8.19 C9.32 8.21 9.32 8.21 8.06 8.22 C4.86 7.87 3.87 5.85 1.87 3.43 C0 1 0 1 0 0 Z " fill="#DF5A73" transform="translate(162,150)"/>
<path d="M0 0 C3.92 0.22 4.96 0.95 7.75 3.87 C11.03 8.43 11.10 11.48 11 17 C10.01 17.33 9.02 17.66 8 18 C6.64 20.51 5.45 22.95 4.31 25.56 C3.83 26.62 3.83 26.62 3.34 27.71 C2.55 29.47 1.77 31.23 1 33 C0.34 33 -0.32 33 -1 33 C-1.33 33.99 -1.66 34.98 -2 36 C-3.93 36.81 -3.93 36.81 -6 37 C-6.66 36.34 -7.32 35.68 -8 35 C-6.60 34.41 -6.60 34.41 -5.18 33.81 C-0.05 30.89 1.62 25.86 4.18 20.68 C4.98 19.08 4.98 19.08 5.79 17.44 C6.19 16.64 6.58 15.83 7 15 C7.99 15 8.98 15 10 15 C7.13 7.92 7.13 7.92 1.68 2.87 C0.80 2.58 -0.08 2.29 -1 2 C-0.67 1.34 -0.34 0.68 0 0 Z " fill="#F9E0BC" transform="translate(169,98)"/>
<path d="M0 0 C3.3 0 6.6 0 10 0 C9.67 2.97 9.34 5.94 9 9 C7.68 9 6.36 9 5 9 C5 9.66 5 10.32 5 11 C4.01 11 3.02 11 2 11 C-0.32 7.36 -0.16 4.22 0 0 Z " fill="#704589" transform="translate(157,99)"/>
<path d="M0 0 C5.89 0.41 9.25 2.05 13.93 5.56 C14.52 5.98 15.11 6.41 15.72 6.84 C17.15 7.88 18.57 8.94 20 10 C19.45 13.37 18.94 15.08 17 18 C16.34 18 15.68 18 15 18 C14.86 17.36 14.73 16.72 14.59 16.06 C14.33 14.82 14.33 14.82 14.06 13.56 C13.88 12.73 13.71 11.91 13.53 11.06 C13.19 9.02 13.19 9.02 12 8 C11.34 9.32 10.68 10.64 10 12 C9.85 11.21 9.71 10.43 9.56 9.62 C9.12 7.03 9.12 7.03 8 5 C6.11 4.31 6.11 4.31 3.93 3.87 C3.20 3.70 2.47 3.53 1.71 3.36 C1.14 3.24 0.58 3.12 0 3 C0 2.01 0 1.02 0 0 Z " fill="#4C4485" transform="translate(98,129)"/>
<path d="M0 0 C2.5 0.93 2.5 0.93 4.31 3.18 C5.58 6.12 5.90 7.78 5.5 10.93 C4.84 12.25 4.18 13.57 3.5 14.93 C0.2 14.27 -3.1 13.61 -6.5 12.93 C-5.18 12.27 -3.86 11.61 -2.5 10.93 C-1.51 11.26 -0.52 11.59 0.5 11.93 C0.5 10.61 0.5 9.29 0.5 7.93 C-1.15 8.26 -2.8 8.59 -4.5 8.93 C-4.5 7.61 -4.5 6.29 -4.5 4.93 C-2.52 4.93 -0.54 4.93 1.5 4.93 C1.17 4.27 0.84 3.61 0.5 2.93 C-1.97 3.28 -1.97 3.28 -4.5 3.93 C-4.83 4.59 -5.16 5.25 -5.5 5.93 C-6.16 5.93 -6.82 5.93 -7.5 5.93 C-5.88 2.21 -4.43 -0.11 0 0 Z " fill="#D1AFE4" transform="translate(149.5,112.06)"/>
<path d="M0 0 C2.55 1.05 3.78 1.64 5.21 4.06 C6.92 6.33 6.92 6.33 10.13 6.39 C11.89 6.32 11.89 6.32 13.68 6.25 C14.86 6.21 16.04 6.17 17.26 6.14 C18.16 6.09 19.06 6.04 20 6 C20.33 6.66 20.66 7.32 21 8 C17.04 8 13.08 8 9 8 C9.92 12.87 10.93 17.09 13.12 21.56 C15.20 25.93 15.34 29.19 15 34 C14.67 34 14.34 34 14 34 C13.77 32.72 13.54 31.44 13.31 30.12 C12.29 25.48 10.44 21.72 8.22 17.55 C6.97 14.95 6.18 12.46 5.43 9.68 C4.34 5.69 2.92 3.03 0 0 Z " fill="#E0BEEE" transform="translate(148,91)"/>
<path d="M0 0 C0.66 0.33 1.32 0.66 2 1 C2 1.99 2 2.98 2 4 C3.17 3.90 3.17 3.90 4.37 3.81 C5.67 3.90 5.67 3.90 7 4 C7.99 5.48 7.99 5.48 9 7 C8.03 7.30 7.06 7.61 6.06 7.93 C3.15 8.69 3.15 8.69 2 10 C1.63 12.32 1.29 14.66 1 17 C0.67 17 0.34 17 0 17 C0 14.69 0 12.38 0 10 C-0.66 10 -1.32 10 -2 10 C-2 10.99 -2 11.98 -2 13 C-2.66 13 -3.32 13 -4 13 C-4 15.31 -4 17.62 -4 20 C-4.66 20 -5.32 20 -6 20 C-6 21.98 -6 23.96 -6 26 C-6.33 26 -6.66 26 -7 26 C-7.51 19.02 -5.78 14.32 -3 8 C-2.40 6.46 -1.82 4.92 -1.25 3.37 C-0.83 2.26 -0.42 1.14 0 0 Z " fill="#534D85" transform="translate(112,102)"/>
<path d="M0 0 C0.33 0.66 0.66 1.32 1 2 C5.45 1.50 5.45 1.50 10 1 C10 1.99 10 2.98 10 4 C8.53 5.27 7.06 6.54 5.50 7.71 C3.72 9.11 3.72 9.11 2 12 C1.01 11.67 0.02 11.34 -1 11 C-2.15 7.52 -2.06 4.63 -2 1 C-1.34 0.67 -0.68 0.34 0 0 Z " fill="#493A88" transform="translate(125,134)"/>
<path d="M0 0 C0.66 0 1.32 0 2 0 C2.08 3.85 1.75 7.23 1 11 C1.33 11.33 1.66 11.66 2 12 C2.07 14.69 2.09 17.36 2.06 20.06 C2.05 20.82 2.05 21.57 2.04 22.36 C2.03 24.24 2.01 26.12 2 28 C0.02 28.99 0.02 28.99 -2 30 C-2 30.66 -2 31.32 -2 32 C-3.98 32 -5.96 32 -8 32 C-8 31.34 -8 30.68 -8 30 C-6.57 29.65 -6.57 29.65 -5.12 29.31 C-1.94 28.30 -1.94 28.30 -0.62 26 C0.27 21.65 0.15 17.41 0 13 C-1.98 12.34 -3.96 11.68 -6 11 C-5.19 10.27 -4.39 9.55 -3.56 8.81 C-0.83 5.81 0 4.00 0 0 Z " fill="#CD7178" transform="translate(162,140)"/>
<path d="M0 0 C2.47 0.49 2.47 0.49 5 1 C5.33 2.32 5.66 3.64 6 5 C8.31 5.33 10.62 5.66 13 6 C13.33 7.32 13.66 8.64 14 10 C11.36 10.66 8.72 11.32 6 12 C5.67 10.35 5.34 8.7 5 7 C4.34 7 3.68 7 3 7 C2.67 7.66 2.34 8.32 2 9 C1.34 6.03 0.68 3.06 0 0 Z " fill="#714190" transform="translate(136,120)"/>
<path d="M0 0 C0.99 0 1.98 0 3 0 C3.03 1.24 3.03 1.24 3.07 2.50 C3.19 6.25 3.31 10.00 3.43 13.75 C3.47 15.05 3.51 16.35 3.55 17.69 C3.59 18.94 3.64 20.19 3.68 21.48 C3.72 22.63 3.75 23.78 3.79 24.97 C3.96 27.47 4.27 29.61 5 32 C4.01 32.49 4.01 32.49 3 33 C-0.37 25.57 -0.13 18.05 -0.06 10.06 C-0.05 9.09 -0.05 8.12 -0.04 7.12 C-0.03 4.74 -0.02 2.37 0 0 Z " fill="#5F398E" transform="translate(59,120)"/>
<path d="M0 0 C1.65 0.33 3.3 0.66 5 1 C5.33 2.65 5.66 4.3 6 6 C4.47 7.23 2.94 8.47 1.41 9.71 C-0.13 10.96 -0.13 10.96 -1 13 C-3 12 -3 12 -4 10 C-3.34 10 -2.68 10 -2 10 C-2.33 9.01 -2.66 8.02 -3 7 C-2.07 4.63 -1.08 2.29 0 0 Z " fill="#F5B2BD" transform="translate(157,139)"/>
<path d="M0 0 C2 0.68 2 0.68 4 2.68 C3.62 4.81 3.62 4.81 3 6.68 C2.67 5.36 2.34 4.04 2 2.68 C0.02 2.68 -1.96 2.68 -4 2.68 C-3.67 3.67 -3.34 4.66 -3 5.68 C-1.68 5.68 -0.36 5.68 1 5.68 C1 7.00 1 8.32 1 9.68 C-0.65 9.68 -2.3 9.68 -4 9.68 C-2.68 10.34 -1.36 11.00 0 11.68 C-2.64 11.68 -5.28 11.68 -8 11.68 C-7.67 9.04 -7.34 6.40 -7 3.68 C-6.34 3.68 -5.68 3.68 -5 3.68 C-4.67 2.69 -4.34 1.70 -4 0.68 C-2 -0.31 -2 -0.31 0 0 Z " fill="#B5A1C2" transform="translate(149,114.31)"/>
<path d="M0 0 C0.02 0.57 0.05 1.14 0.07 1.72 C0.19 4.29 0.31 6.86 0.43 9.43 C0.47 10.33 0.51 11.23 0.55 12.15 C0.61 13.43 0.61 13.43 0.68 14.74 C0.72 15.53 0.75 16.32 0.79 17.14 C0.80 19.01 0.80 19.01 2 20 C2.04 21.99 2.04 24.00 2 26 C1.67 26 1.34 26 1 26 C-0.71 21.47 -1.35 17.44 -1.62 12.62 C-1.73 10.75 -1.73 10.75 -1.85 8.85 C-1.90 7.91 -1.94 6.96 -2 6 C-4.31 5.67 -6.62 5.34 -9 5 C-9 5.66 -9 6.32 -9 7 C-9.66 7 -10.32 7 -11 7 C-10.67 5.35 -10.34 3.7 -10 2 C-8.70 1.66 -7.41 1.33 -6.12 1 C-5.40 0.81 -4.68 0.62 -3.94 0.43 C-2 0 -2 0 0 0 Z " fill="#5A409A" transform="translate(130,96)"/>
<path d="M0 0 C0.66 0 1.32 0 2 0 C3.20 2.40 3.10 3.94 3.06 6.62 C3.05 7.44 3.04 8.25 3.03 9.10 C3.02 9.72 3.01 10.35 3 11 C3.94 10.93 4.89 10.87 5.87 10.81 C6.90 10.87 7.93 10.93 9 11 C9.99 12.48 9.99 12.48 11 14 C8 16 8 16 4.93 15.75 C2 15 2 15 0 13 C-0.01 11.12 -0.01 11.12 0.31 9 C0.41 8.29 0.51 7.59 0.61 6.87 C1 5 1 5 2 3 C1.34 3 0.68 3 0 3 C0 2.01 0 1.02 0 0 Z " fill="#CF6B8C" transform="translate(131,153)"/>
<path d="M0 0 C0.33 0.99 0.66 1.98 1 3 C-2.3 3 -5.6 3 -9 3 C-8.34 2.67 -7.68 2.34 -7 2 C-7 1.34 -7 0.68 -7 0 C-9.73 -0.75 -12.28 -1.16 -15.10 -1.31 C-15.86 -1.35 -16.61 -1.40 -17.39 -1.44 C-18.56 -1.50 -18.56 -1.50 -19.75 -1.56 C-20.93 -1.62 -20.93 -1.62 -22.15 -1.69 C-24.10 -1.79 -26.05 -1.89 -28 -2 C-28 -2.33 -28 -2.66 -28 -3 C-18.55 -4.28 -8.71 -4.55 0 0 Z " fill="#A15599" transform="translate(131,50)"/>
<path d="M0 0 C2 3 2 3 1.93 6.06 C1.95 7.03 1.97 8.00 2 9 C4.81 11.32 4.81 11.32 8 10.75 C11.15 10.14 11.15 10.14 14 8 C14.66 8.66 15.32 9.32 16 10 C10.08 13.46 5.51 13.62 -1 12 C-2.15 12.02 -3.31 12.04 -4.5 12.06 C-7.78 12.00 -9.29 11.73 -12 10 C-11.67 9.01 -11.34 8.02 -11 7 C-11 7.66 -11 8.32 -11 9 C-7.37 9.33 -3.74 9.66 0 10 C0 6.7 0 3.4 0 0 Z " fill="#F5AFCC" transform="translate(130,157)"/>
<path d="M0 0 C0.99 0 1.98 0 3 0 C4.32 2.31 5.64 4.62 7 7 C5.5 8.56 5.5 8.56 3 10 C0.22 9.96 -2.25 9.50 -5 9 C-4.01 8.67 -3.02 8.34 -2 8 C-2 7.01 -2 6.02 -2 5 C-1.34 5 -0.68 5 0 5 C0 3.35 0 1.7 0 0 Z " fill="#4E448E" transform="translate(106,143)"/>
<path d="M0 0 C4.75 0.75 4.75 0.75 7 3 C7.38 6.50 7.40 8.36 5.5 11.37 C5.00 11.91 4.51 12.44 4 13 C1.36 12.34 -1.28 11.68 -4 11 C-4 10.01 -4 9.02 -4 8 C-3.34 8 -2.68 8 -2 8 C-2 8.66 -2 9.32 -2 10 C-0.68 10 0.64 10 2 10 C2 8.68 2 7.36 2 6 C0.68 5.34 -0.64 4.68 -2 4 C2.87 4.87 2.87 4.87 4 6 C4 5.01 4 4.02 4 3 C2.05 1.29 2.05 1.29 0 0 Z " fill="#D2CDF0" transform="translate(119,109)"/>
<path d="M0 0 C0.71 0.38 1.43 0.77 2.16 1.17 C0.78 3.95 -0.95 4.43 -3.70 5.80 C-4.59 6.25 -5.47 6.69 -6.38 7.15 C-8.83 8.17 -8.83 8.17 -11.83 8.17 C-12.16 7.18 -12.49 6.19 -12.83 5.17 C-11.28 4.11 -9.71 3.07 -8.14 2.05 C-7.27 1.47 -6.40 0.89 -5.50 0.29 C-2.83 -0.82 -2.83 -0.82 0 0 Z " fill="#CE5683" transform="translate(158.83,135.82)"/>
<path d="M0 0 C0.66 0 1.32 0 2 0 C2 1.98 2 3.96 2 6 C2.66 6 3.32 6 4 6 C4 6.66 4 7.32 4 8 C4.66 8 5.32 8 6 8 C6 8.66 6 9.32 6 10 C5.34 10 4.68 10 4 10 C4 10.66 4 11.32 4 12 C1.36 12 -1.28 12 -4 12 C-4 10.68 -4 9.36 -4 8 C-2.68 8 -1.36 8 0 8 C0 5.36 0 2.72 0 0 Z " fill="#466CAC" transform="translate(124,186)"/>
<path d="M0 0 C0.99 0 1.98 0 3 0 C2.67 1.32 2.34 2.64 2 4 C1.34 4 0.68 4 0 4 C0 5.32 0 6.64 0 8 C1.32 7.67 2.64 7.34 4 7 C4.33 8.32 4.66 9.64 5 11 C3.35 11 1.7 11 0 11 C-0.68 9.29 -0.68 9.29 -1.37 7.56 C-2.57 3.95 -2.57 3.95 -5 3 C-6.37 2.93 -7.75 2.91 -9.12 2.93 C-11.04 2.96 -11.04 2.96 -13 3 C-13 2.34 -13 1.68 -13 1 C-11.39 0.97 -9.79 0.95 -8.18 0.93 C-7.29 0.92 -6.40 0.91 -5.48 0.90 C-3 1 -3 1 0 2 C0 1.34 0 0.68 0 0 Z " fill="#DDABD5" transform="translate(140,133)"/>
<path d="M0 0 C1.33 0.31 1.33 0.31 2.70 0.63 C3.60 0.83 4.50 1.04 5.43 1.25 C6.46 1.50 6.46 1.50 7.51 1.75 C7.84 2.74 8.17 3.73 8.51 4.75 C5.21 4.75 1.91 4.75 -1.48 4.75 C-1.81 5.41 -2.14 6.07 -2.48 6.75 C-3.47 7.25 -3.47 7.25 -4.48 7.75 C-4.81 5.77 -5.14 3.79 -5.48 1.75 C-2.48 -0.24 -2.48 -0.24 0 0 Z " fill="#4D438F" transform="translate(128.48,129.24)"/>
<path d="M0 0 C0.66 0 1.32 0 2 0 C2 0.66 2 1.32 2 2 C2.66 2 3.32 2 4 2 C4 2.66 4 3.32 4 4 C4.66 4 5.32 4 6 4 C6 4.99 6 5.98 6 7 C2.68 8.10 0.75 7.92 -2.68 7.56 C-3.68 7.46 -4.67 7.35 -5.69 7.25 C-6.45 7.17 -7.21 7.08 -8 7 C-8.33 6.01 -8.66 5.02 -9 4 C-6.03 4 -3.06 4 0 4 C0 2.68 0 1.36 0 0 Z " fill="#706A96" transform="translate(130,196)"/>
<path d="M0 0 C0.33 0.66 0.66 1.32 1 2 C1.66 2.33 2.32 2.66 3 3 C2.67 3.99 2.34 4.98 2 6 C1.93 8.06 1.91 10.12 1.93 12.18 C1.94 13.27 1.95 14.36 1.96 15.48 C1.97 16.31 1.98 17.14 2 18 C0.35 18 -1.3 18 -3 18 C-3.33 18.66 -3.66 19.32 -4 20 C-4.66 20 -5.32 20 -6 20 C-5.25 17.06 -5.25 17.06 -4 14 C-2.68 13.67 -1.36 13.34 0 13 C-0.66 9.37 -1.32 5.74 -2 2 C-1.34 2 -0.68 2 0 2 C0 1.34 0 0.68 0 0 Z " fill="#D7A671" transform="translate(180,102)"/>
<path d="M0 0 C1.32 0 2.64 0 4 0 C4 2.64 4 5.28 4 8 C4.66 8 5.32 8 6 8 C6 8.66 6 9.32 6 10 C6.66 10 7.32 10 8 10 C8 13.63 8 17.26 8 21 C6.49 17.99 5.14 15.04 3.87 11.93 C3.52 11.08 3.16 10.22 2.80 9.33 C2 7 2 7 2 4 C1.34 4 0.68 4 0 4 C0 2.68 0 1.36 0 0 Z " fill="#C59077" transform="translate(160,76)"/>
<path d="M0 0 C1.98 0 3.96 0 6 0 C6 0.66 6 1.32 6 2 C7.32 2 8.64 2 10 2 C10 3.32 10 4.64 10 6 C9.34 6 8.68 6 8 6 C8 6.66 8 7.32 8 8 C5.83 7.49 4.00 7.00 2 6 C2 5.34 2 4.68 2 4 C1.34 4 0.68 4 0 4 C0 2.68 0 1.36 0 0 Z " fill="#4768B1" transform="translate(144,56)"/>
<path d="M0 0 C0.99 0.33 1.98 0.66 3 1 C2.67 2.32 2.34 3.64 2 5 C-5.53 5.75 -12.50 6.14 -20 5 C-20 4.67 -20 4.34 -20 4 C-19.05 3.96 -18.11 3.92 -17.14 3.88 C-15.90 3.82 -14.65 3.75 -13.37 3.68 C-11.53 3.60 -11.53 3.60 -9.64 3.51 C-5.84 2.97 -3.38 1.72 0 0 Z " fill="#44488E" transform="translate(116,166)"/>
<path d="M0 0 C0.36 9.41 0.36 9.41 -2 14 C-2.99 14 -3.98 14 -5 14 C-5.62 5.99 -5.62 5.99 -3.06 1.93 C-1 0 -1 0 0 0 Z " fill="#D06085" transform="translate(161,154)"/>
<path d="M0 0 C0 0.33 0 0.66 0 1 C-1.66 1.18 -1.66 1.18 -3.35 1.36 C-4.82 1.53 -6.28 1.70 -7.75 1.87 C-8.47 1.95 -9.20 2.03 -9.96 2.11 C-13.74 2.56 -16.63 3.25 -20 5 C-20.99 4.67 -21.98 4.34 -23 4 C-23 3.34 -23 2.68 -23 2 C-22.01 2 -21.02 2 -20 2 C-20 1.34 -20 0.68 -20 0 C-13.26 -1.41 -6.80 -0.66 0 0 Z " fill="#DFAF69" transform="translate(186,58)"/>
<path d="M0 0 C0.33 0 0.66 0 1 0 C1.33 2.97 1.66 5.94 2 9 C7.94 10.48 7.94 10.48 14 12 C14.66 9.36 15.32 6.72 16 4 C16.33 4 16.66 4 17 4 C17.21 7.13 17.19 9.48 16.06 12.43 C13.56 14.33 12.74 14.18 9.68 13.93 C5.69 13.31 2.49 12.06 -1 10 C-0.67 6.7 -0.34 3.4 0 0 Z " fill="#FAC4DA" transform="translate(145,156)"/>
<path d="M0 0 C5.66 5.37 5.66 5.37 7 9 C7 9.99 7 10.98 7 12 C6.01 12.33 5.02 12.66 4 13 C3.34 13.66 2.68 14.32 2 15 C2 11.7 2 8.4 2 5 C0.68 4.34 -0.64 3.68 -2 3 C-2 2.34 -2 1.68 -2 1 C-1.34 0.67 -0.68 0.34 0 0 Z " fill="#CBA170" transform="translate(172,101)"/>
<path d="M0 0 C1.98 1.65 3.96 3.3 6 5 C5.34 5.66 4.68 6.32 4 7 C3.34 7 2.68 7 2 7 C2.99 8.48 2.99 8.48 4 10 C4 11.32 4 12.64 4 14 C2 13 0 12 -2 11 C-1.67 9.68 -1.34 8.36 -1 7 C-1.66 6.67 -2.32 6.34 -3 6 C-2.34 5.67 -1.68 5.34 -1 5 C-0.34 5.33 0.32 5.66 1 6 C0.64 5.38 0.29 4.76 -0.06 4.12 C-0.37 3.42 -0.68 2.72 -1 2 C-0.67 1.34 -0.34 0.68 0 0 Z " fill="#7C519B" transform="translate(147,91)"/>
<path d="M0 0 C0.66 0 1.32 0 2 0 C2.33 1.65 2.66 3.3 3 5 C3.66 5 4.32 5 5 5 C5 5.66 5 6.32 5 7 C5.66 7 6.32 7 7 7 C9 10 9 10 9 14 C8.01 14 7.02 14 6 14 C6 12.02 6 10.04 6 8 C5.34 8 4.68 8 4 8 C4 7.34 4 6.68 4 6 C3.34 6 2.68 6 2 6 C2 5.34 2 4.68 2 4 C1.34 4 0.68 4 0 4 C-0.33 5.32 -0.66 6.64 -1 8 C-2.65 8 -4.3 8 -6 8 C-5.34 7.01 -4.68 6.02 -4 5 C-3.34 5 -2.68 5 -2 5 C-2 4.34 -2 3.68 -2 3 C-1.34 3 -0.68 3 0 3 C0 2.01 0 1.02 0 0 Z " fill="#6D4A8F" transform="translate(150,64)"/>
<path d="M0 0 C1.93 0.62 1.93 0.62 4 2 C4.75 5.12 4.75 5.12 5 8 C4.34 8 3.68 8 3 8 C3 8.66 3 9.32 3 10 C2.01 10 1.02 10 0 10 C-0.33 8.68 -0.66 7.36 -1 6 C-3.64 5.67 -6.28 5.34 -9 5 C-9 4.67 -9 4.34 -9 4 C-6.03 4 -3.06 4 0 4 C0 2.68 0 1.36 0 0 Z " fill="#946EB4" transform="translate(137,125)"/>
<path d="M0 0 C3 1 3 1 4 2 C4.07 3.68 4.08 5.37 4.06 7.06 C4.05 7.98 4.04 8.90 4.03 9.84 C4.02 10.55 4.01 11.26 4 12 C3.34 12 2.68 12 2 12 C2 12.66 2 13.32 2 14 C1.34 14 0.68 14 0 14 C0 9.38 0 4.76 0 0 Z " fill="#D79959" transform="translate(170,104)"/>
<path d="M0 0 C2.97 0.49 2.97 0.49 6 1 C6.12 8.75 6.12 8.75 5 11 C4.01 11 3.02 11 2 11 C2 9.02 2 7.04 2 5 C1.34 5 0.68 5 0 5 C0 3.35 0 1.7 0 0 Z " fill="#D25680" transform="translate(148,155)"/>
<path d="M0 0 C0.33 0 0.66 0 1 0 C1.08 0.66 1.17 1.32 1.26 2.01 C2.19 7.90 3.15 11.12 8 15 C8.66 15.66 9.32 16.32 10 17 C9.62 19.12 9.62 19.12 9 21 C9.66 21 10.32 21 11 21 C10.34 22.32 9.68 23.64 9 25 C8.76 24.41 8.53 23.83 8.30 23.24 C6.68 19.36 5.16 15.91 2.37 12.75 C0.14 10.16 -0.96 8.21 -2 5 C-1.34 5 -0.68 5 0 5 C0 3.35 0 1.7 0 0 Z " fill="#E0B9DD" transform="translate(122,135)"/>
<path d="M0 0 C0.33 0 0.66 0 1 0 C1 4.29 1 8.58 1 13 C1.66 13 2.32 13 3 13 C3 14.98 3 16.96 3 19 C1.68 19 0.36 19 -1 19 C-1.02 16.39 -1.04 13.79 -1.06 11.18 C-1.07 10.44 -1.07 9.71 -1.08 8.95 C-1.10 5.70 -1.03 3.10 0 0 Z " fill="#6066A1" transform="translate(119,167)"/>
<path d="M0 0 C-0.75 7.75 -0.75 7.75 -3 10 C-3.99 10 -4.98 10 -6 10 C-6.29 3.94 -6.29 3.94 -6 2 C-3 0 -3 0 0 0 Z " fill="#5D6D9A" transform="translate(200,150)"/>
<path d="M0 0 C0.33 0 0.66 0 1 0 C1.02 0.66 1.05 1.32 1.07 2.00 C1.19 5.02 1.31 8.04 1.43 11.06 C1.47 12.10 1.51 13.13 1.55 14.20 C1.77 19.54 2.11 24.73 3 30 C-1.87 25.37 -1.87 25.37 -3 22 C-2.01 22 -1.02 22 0 22 C0 14.74 0 7.48 0 0 Z " fill="#9956A4" transform="translate(58,118)"/>
<path d="M0 0 C4.12 -0.32 6.36 -0.39 9.93 1.81 C12 4 12 4 12 7 C12.99 7.33 13.98 7.66 15 8 C11.98 8.93 11.13 9.04 8 8 C7.67 6.35 7.34 4.7 7 3 C4.69 3.33 2.38 3.66 0 4 C0 2.68 0 1.36 0 0 Z " fill="#413981" transform="translate(114,121)"/>
<path d="M0 0 C0.66 0 1.32 0 2 0 C2 0.99 2 1.98 2 3 C1.34 3 0.68 3 0 3 C0 3.66 0 4.32 0 5 C-5.94 5 -11.88 5 -18 5 C-18 4.67 -18 4.34 -18 4 C-11.92 1.84 -6.40 1.79 0 2 C0 1.34 0 0.68 0 0 Z " fill="#63358D" transform="translate(132,51)"/>
<path d="M0 0 C2.32 0.93 3.74 1.65 5.25 3.68 C6.27 6.83 6.12 9.71 6 13 C2.50 10.13 0.71 8.15 0.18 3.68 C0.12 2.47 0.06 1.25 0 0 Z " fill="#4E4782" transform="translate(101,155)"/>
<path d="M0 0 C3.3 0 6.6 0 10 0 C10 3.3 10 6.6 10 10 C9.01 10 8.02 10 7 10 C7.33 7.69 7.66 5.38 8 3 C5.36 3 2.72 3 0 3 C0 2.01 0 1.02 0 0 Z " fill="#CC5078" transform="translate(134,155)"/>
<path d="M0 0 C0.33 0.99 0.66 1.98 1 3 C1.66 3 2.32 3 3 3 C3.33 2.34 3.66 1.68 4 1 C3.01 10.67 3.01 10.67 1 14 C-1.62 14.81 -1.62 14.81 -4 15 C-4 14.34 -4 13.68 -4 13 C-3.34 13 -2.68 13 -2 13 C-1.34 8.71 -0.68 4.42 0 0 Z " fill="#955A7F" transform="translate(163,119)"/>
<path d="M0 0 C0.33 0 0.66 0 1 0 C1 1.65 1 3.3 1 5 C1.66 5 2.32 5 3 5 C3 6.98 3 8.96 3 11 C1.68 11 0.36 11 -1 11 C-1.33 10.01 -1.66 9.02 -2 8 C-3.49 6.33 -3.49 6.33 -5 5 C-3.33 3.33 -1.66 1.66 0 0 Z " fill="#4D4499" transform="translate(127,117)"/>
<path d="M0 0 C2.64 0 5.28 0 8 0 C7.12 4.87 7.12 4.87 6 6 C4.00 6.04 1.99 6.04 0 6 C0 4.02 0 2.04 0 0 Z " fill="#F7BF81" transform="translate(124,206)"/>
<path d="M0 0 C0.66 0 1.32 0 2 0 C2 2.64 2 5.28 2 8 C2.99 8.33 3.98 8.66 5 9 C4.67 11.97 4.34 14.94 4 18 C3.34 18 2.68 18 2 18 C2 16.02 2 14.04 2 12 C1.34 12 0.68 12 0 12 C0 8.04 0 4.08 0 0 Z " fill="#BC5C93" transform="translate(120,168)"/>
<path d="M0 0 C1.32 0 2.64 0 4 0 C4 0.66 4 1.32 4 2 C4.66 2 5.32 2 6 2 C6 3.98 6 5.96 6 8 C4.02 8 2.04 8 0 8 C0 5.36 0 2.72 0 0 Z " fill="#466BB2" transform="translate(212,152)"/>
<path d="M0 0 C1.98 0 3.96 0 6 0 C7.79 3.80 8.07 4.70 7 9 C4.03 8.67 1.06 8.34 -2 8 C-0.68 7.34 0.64 6.68 2 6 C2.99 6.33 3.98 6.66 5 7 C5 5.68 5 4.36 5 3 C3.35 3.33 1.7 3.66 0 4 C0 2.68 0 1.36 0 0 Z " fill="#F1E4F5" transform="translate(145,117)"/>
<path d="M0 0 C1.32 0 2.64 0 4 0 C4 1.32 4 2.64 4 4 C3.34 4 2.68 4 2 4 C2 5.98 2 7.96 2 10 C0.68 9.67 -0.64 9.34 -2 9 C-2 8.01 -2 7.02 -2 6 C-2.66 6 -3.32 6 -4 6 C-4 5.34 -4 4.68 -4 4 C-2.68 4 -1.36 4 0 4 C0 2.68 0 1.36 0 0 Z " fill="#C75C86" transform="translate(138,194)"/>
<path d="M0 0 C3.35 2.23 4.81 3.26 5.81 7.25 C5.87 8.15 5.93 9.06 6 10 C5.34 10 4.68 10 4 10 C4 8.68 4 7.36 4 6 C2.35 6 0.7 6 -1 6 C-1.33 7.98 -1.66 9.96 -2 12 C-2.33 12 -2.66 12 -3 12 C-2.14 3.42 -2.14 3.42 0 0 Z " fill="#B55486" transform="translate(124,148)"/>
<path d="M0 0 C-0.25 1.31 -0.52 2.62 -0.81 3.93 C-1.03 5.03 -1.03 5.03 -1.26 6.15 C-1.51 6.76 -1.75 7.37 -2 8 C-5.13 9.04 -5.98 8.93 -9 8 C-9 6 -9 6 -7 4 C-6.36 3.29 -5.72 2.59 -5.06 1.87 C-3 0 -3 0 0 0 Z " fill="#40378E" transform="translate(132,88)"/>
<path d="M0 0 C0.66 0.33 1.32 0.66 2 1 C1.34 2.65 0.68 4.3 0 6 C-0.66 6 -1.32 6 -2 6 C-2 6.66 -2 7.32 -2 8 C-5.31 9.12 -8.58 10.21 -12 11 C-7.37 6.12 -7.37 6.12 -4 5 C-4 4.34 -4 3.68 -4 3 C-2 1.37 -2 1.37 0 0 Z " fill="#5C368F" transform="translate(92,64)"/>
<path d="M0 0 C2.12 0.93 2.12 0.93 4 2 C3.67 3.65 3.34 5.3 3 7 C2.01 7.33 1.02 7.66 0 8 C-1.56 6.75 -1.56 6.75 -3 5 C-2.81 2.87 -2.81 2.87 -2 1 C-1.34 0.67 -0.68 0.34 0 0 Z " fill="#5B5389" transform="translate(51,159)"/>
<path d="M0 0 C0 0.66 0 1.32 0 2 C0.66 2.33 1.32 2.66 2 3 C2 4.65 2 6.3 2 8 C-0.96 7.38 -2.38 6.74 -5 5 C-5 3.68 -5 2.36 -5 1 C-2 0 -2 0 0 0 Z " fill="#4A4483" transform="translate(119,130)"/>
<path d="M0 0 C0.99 0.66 1.98 1.32 3 2 C3.18 4.62 3.18 4.62 3 7 C2.34 7 1.68 7 1 7 C1 7.66 1 8.32 1 9 C-0.98 9 -2.96 9 -5 9 C-4.34 8.67 -3.68 8.34 -3 8 C-2.28 6.01 -1.61 4.01 -1 2 C-0.67 1.34 -0.34 0.68 0 0 Z " fill="#CFA06A" transform="translate(173,123)"/>
<path d="M0 0 C3 3.62 3 3.62 3 7 C1 8.68 1 8.68 -1 10 C-1 9.34 -1 8.68 -1 8 C-1.66 8 -2.32 8 -3 8 C-3.66 6.35 -4.32 4.7 -5 3 C-3.35 3 -1.7 3 0 3 C0 2.01 0 1.02 0 0 Z " fill="#784F9B" transform="translate(158,112)"/>
<path d="M0 0 C0.33 0 0.66 0 1 0 C1.33 2.31 1.66 4.62 2 7 C2.74 6.95 3.48 6.91 4.25 6.87 C7.08 7.00 8.58 7.57 11 9 C11.33 7.68 11.66 6.36 12 5 C12 6.65 12 8.3 12 10 C10.56 10.08 9.12 10.13 7.68 10.18 C6.48 10.23 6.48 10.23 5.26 10.29 C3 10 3 10 1.21 8.71 C-0.73 5.96 -0.18 3.25 0 0 Z " fill="#B55E87" transform="translate(118,157)"/>
<path d="M0 0 C1.32 0 2.64 0 4 0 C4 0.66 4 1.32 4 2 C5.65 2 7.3 2 9 2 C8.67 2.99 8.34 3.98 8 5 C5.36 5.33 2.72 5.66 0 6 C0 4.02 0 2.04 0 0 Z " fill="#C8986A" transform="translate(192,146)"/>
<path d="M0 0 C0.99 0.33 1.98 0.66 3 1 C2.34 1.66 1.68 2.32 1 3 C1 3.66 1 4.32 1 5 C5.95 3.51 5.95 3.51 11 2 C10.34 3.65 9.68 5.3 9 7 C8.67 6.34 8.34 5.68 8 5 C7.01 5.49 7.01 5.49 6 6 C4.29 6.06 2.58 6.08 0.87 6.06 C-0.03 6.05 -0.94 6.04 -1.88 6.03 C-2.58 6.02 -3.28 6.01 -4 6 C-3.01 5.67 -2.02 5.34 -1 5 C-1.33 3.68 -1.66 2.36 -2 1 C-1.34 0.67 -0.68 0.34 0 0 Z " fill="#FBC3DD" transform="translate(146,139)"/>
<path d="M0 0 C3.84 0.21 4.96 0.96 7.75 3.75 C9.82 6.74 10.68 8.43 11 12 C10.34 12 9.68 12 9 12 C7.88 10.32 7.88 10.32 6.68 8.12 C4.94 5.18 4.27 4.14 1.18 2.5 C0.10 2.25 0.10 2.25 -1 2 C-0.67 1.34 -0.34 0.68 0 0 Z " fill="#F8D7A7" transform="translate(169,98)"/>
<path d="M0 0 C0.66 0 1.32 0 2 0 C2.64 1.89 3.29 3.79 3.93 5.68 C4.29 6.74 4.65 7.79 5.02 8.88 C5.87 11.59 6.50 14.21 7 17 C6.01 17 5.02 17 4 17 C3.66 15.58 3.32 14.16 3 12.75 C2.81 11.96 2.62 11.17 2.43 10.35 C2 8 2 8 2 4 C1.34 4 0.68 4 0 4 C0 2.68 0 1.36 0 0 Z " fill="#804C77" transform="translate(160,80)"/>
<path d="M0 0 C1.22 0.01 1.22 0.01 2.47 0.02 C3.41 0.04 3.41 0.04 4.37 0.06 C3.30 2.97 2.59 4.84 0.37 7.06 C0.37 5.74 0.37 4.42 0.37 3.06 C-1.93 3.06 -4.24 3.06 -6.62 3.06 C-6.62 2.40 -6.62 1.74 -6.62 1.06 C-4.21 -0.14 -2.67 -0.03 0 0 Z " fill="#C26A85" transform="translate(153.62,152.93)"/>
<path d="M0 0 C0.33 1.32 0.66 2.64 1 4 C0.34 4 -0.32 4 -1 4 C-1 4.66 -1 5.32 -1 6 C-1.66 6 -2.32 6 -3 6 C-3 7.98 -3 9.96 -3 12 C-4.65 11.01 -6.3 10.02 -8 9 C-7.04 7.87 -6.08 6.74 -5.12 5.62 C-4.59 4.99 -4.05 4.37 -3.50 3.72 C-2.38 2.44 -1.20 1.20 0 0 Z " fill="#C25C88" transform="translate(133,138)"/>
<path d="M0 0 C2 1.56 2 1.56 4 4 C4.25 7.75 4.25 7.75 4 11 C0.24 9.54 0.24 9.54 -0.81 7.18 C-1.03 4.61 -0.62 2.49 0 0 Z " fill="#A49FD4" transform="translate(109,136)"/>
<path d="M0 0 C0.66 0 1.32 0 2 0 C2 0.66 2 1.32 2 2 C3.32 2 4.64 2 6 2 C6 3.32 6 4.64 6 6 C6.66 6 7.32 6 8 6 C8 6.66 8 7.32 8 8 C8.99 8.33 9.98 8.66 11 9 C6.27 9 5.44 7.99 2 5 C1.34 4.67 0.68 4.34 0 4 C0 2.68 0 1.36 0 0 Z " fill="#E38D5F" transform="translate(174,130)"/>
<path d="M0 0 C1.32 0 2.64 0 4 0 C4 1.65 4 3.3 4 5 C1.68 5.62 1.68 5.62 -1 6 C-1.99 5.34 -2.98 4.68 -4 4 C-4 3.34 -4 2.68 -4 2 C-2.68 2 -1.36 2 0 2 C0 1.34 0 0.68 0 0 Z " fill="#D34D82" transform="translate(148,132)"/>
<path d="M0 0 C0.33 0 0.66 0 1 0 C1 2.64 1 5.28 1 8 C-0.98 8.99 -0.98 8.99 -3 10 C-3 10.66 -3 11.32 -3 12 C-4.98 12 -6.96 12 -9 12 C-9 11.34 -9 10.68 -9 10 C-8.07 9.83 -7.14 9.67 -6.18 9.5 C-2.60 7.81 -2.41 7.38 -1.12 3.87 C-0.72 2.59 -0.34 1.30 0 0 Z " fill="#C26384" transform="translate(163,160)"/>
<path d="M0 0 C1.98 0 3.96 0 6 0 C6 0.66 6 1.32 6 2 C6.66 2 7.32 2 8 2 C6.87 4.97 5.77 7.33 4 10 C3.56 8.36 3.56 8.36 3.12 6.68 C2.18 2.95 2.18 2.95 0 0 Z " fill="#514893" transform="translate(104,154)"/>
<path d="M0 0 C0.66 0.33 1.32 0.66 2 1 C2 1.99 2 2.98 2 4 C3.17 3.90 3.17 3.90 4.37 3.81 C5.67 3.90 5.67 3.90 7 4 C7.99 5.48 7.99 5.48 9 7 C6.69 7.66 4.38 8.32 2 9 C-1.07 4.56 -1.07 4.56 -0.68 1.68 C-0.46 1.13 -0.23 0.57 0 0 Z " fill="#504795" transform="translate(112,102)"/>
<path d="M0 0 C2.81 -0.25 2.81 -0.25 6 0 C7.87 2 7.87 2 9 4 C7.00 4.38 5.00 4.71 3 5 C2.67 4.67 2.34 4.34 2 4 C1.34 4.99 0.68 5.98 0 7 C0 4.69 0 2.38 0 0 Z " fill="#7A4995" transform="translate(157,99)"/>
<path d="M0 0 C0.66 0 1.32 0 2 0 C1 2 0 4 -1 6 C-1.66 6 -2.32 6 -3 6 C-3 6.66 -3 7.32 -3 8 C-3.66 8 -4.32 8 -5 8 C-5.66 9.98 -6.32 11.96 -7 14 C-7.33 14 -7.66 14 -8 14 C-8 12.02 -8 10.04 -8 8 C-7.34 8 -6.68 8 -6 8 C-6 7.34 -6 6.68 -6 6 C-5.34 6 -4.68 6 -4 6 C-4 5.34 -4 4.68 -4 4 C-3.34 4 -2.68 4 -2 4 C-2 3.34 -2 2.68 -2 2 C-1.34 2 -0.68 2 0 2 C0 1.34 0 0.68 0 0 Z " fill="#9B50A4" transform="translate(78,74)"/>
<path d="M0 0 C0.66 0 1.32 0 2 0 C2 2.64 2 5.28 2 8 C2.99 8.33 3.98 8.66 5 9 C4.67 9.99 4.34 10.98 4 12 C2.68 12 1.36 12 0 12 C0 8.04 0 4.08 0 0 Z " fill="#B3608F" transform="translate(192,152)"/>
<path d="M0 0 C5.87 0.87 5.87 0.87 7 2 C7.04 3.99 7.04 6.00 7 8 C6.38 7.04 6.38 7.04 5.75 6.06 C3.82 3.79 2.88 3.39 0 3 C-0.33 3.99 -0.66 4.98 -1 6 C-1.33 5.01 -1.66 4.02 -2 3 C-1.34 2.01 -0.68 1.02 0 0 Z " fill="#5F5A88" transform="translate(117,110)"/>
<path d="M0 0 C1.93 0.5 1.93 0.5 4 2 C4.68 4.69 4.81 7.20 5 10 C2 9 2 9 1 7.12 C0.50 6.07 0.50 6.07 0 5 C-1.54 3.29 -1.54 3.29 -3 2 C-2.01 1.34 -1.02 0.68 0 0 Z " fill="#6F4887" transform="translate(150,96)"/>
<path d="M0 0 C1.65 0.33 3.3 0.66 5 1 C5.33 2.32 5.66 3.64 6 5 C3.36 5.66 0.72 6.32 -2 7 C-2 6.34 -2 5.68 -2 5 C-1.34 5 -0.68 5 0 5 C0 3.35 0 1.7 0 0 Z " fill="#5C6B9C" transform="translate(154,57)"/>
<path d="M0 0 C0.89 0.20 1.78 0.40 2.70 0.61 C3.37 0.78 4.05 0.95 4.75 1.12 C4.75 1.45 4.75 1.78 4.75 2.12 C3.73 2.21 3.73 2.21 2.70 2.30 C1.81 2.39 0.91 2.47 0 2.56 C-0.88 2.64 -1.76 2.72 -2.67 2.80 C-4.94 3.08 -7.04 3.51 -9.25 4.12 C-9.25 3.13 -9.25 2.14 -9.25 1.12 C-5.82 -1.03 -3.88 -0.92 0 0 Z " fill="#C66686" transform="translate(149.25,167.87)"/>
<path d="M0 0 C0.66 0 1.32 0 2 0 C4 3 4 3 4 6 C4.66 6 5.32 6 6 6 C6 6.99 6 7.98 6 9 C4.68 9 3.36 9 2 9 C2 8.01 2 7.02 2 6 C1.34 6 0.68 6 0 6 C0 4.02 0 2.04 0 0 Z " fill="#E46C5C" transform="translate(186,144)"/>
<path d="M0 0 C0.99 0.33 1.98 0.66 3 1 C3 1.66 3 2.32 3 3 C5.47 3.99 5.47 3.99 8 5 C8 5.66 8 6.32 8 7 C8.66 7 9.32 7 10 7 C10 7.66 10 8.32 10 9 C8.68 9 7.36 9 6 9 C6 8.34 6 7.68 6 7 C5.34 7 4.68 7 4 7 C4 6.34 4 5.68 4 5 C3.34 5 2.68 5 2 5 C2 4.34 2 3.68 2 3 C1.34 3 0.68 3 0 3 C0 2.01 0 1.02 0 0 Z " fill="#E36A57" transform="translate(176,135)"/>
<path d="M0 0 C0.33 0 0.66 0 1 0 C1.44 5.28 1.44 5.28 1 8 C-1.5 10.5 -1.5 10.5 -4 12 C-3.41 5.84 -3.41 5.84 -3 4 C-2.34 3.67 -1.68 3.34 -1 3 C-0.67 2.01 -0.34 1.02 0 0 Z " fill="#D59979" transform="translate(169,120)"/>
<path d="M0 0 C3.3 0 6.6 0 10 0 C5.5 3.37 5.5 3.37 2 4 C2 4.66 2 5.32 2 6 C1.34 6 0.68 6 0 6 C0 4.02 0 2.04 0 0 Z " fill="#A34F9D" transform="translate(94,58)"/>
<path d="M0 0 C6.4 0.49 6.4 0.49 9.43 3.06 C10.21 4.02 10.21 4.02 11 5 C10.01 5.66 9.02 6.32 8 7 C8 6.34 8 5.68 8 5 C5.36 4.34 2.72 3.68 0 3 C0 2.01 0 1.02 0 0 Z " fill="#463F87" transform="translate(98,129)"/>
<path d="M0 0 C0.99 0.66 1.98 1.32 3 2 C2.34 4.97 1.68 7.94 1 11 C-0.96 8.04 -1.65 6.46 -2 3 C-1.34 2.01 -0.68 1.02 0 0 Z " fill="#4A408C" transform="translate(109,95)"/>
<path d="M0 0 C0.99 0.33 1.98 0.66 3 1 C1.02 1.99 1.02 1.99 -1 3 C-1 3.66 -1 4.32 -1 5 C-2.75 6.28 -2.75 6.28 -5 7.62 C-5.74 8.07 -6.48 8.51 -7.25 8.97 C-7.82 9.31 -8.40 9.65 -9 10 C-9 8.68 -9 7.36 -9 6 C-7.68 6 -6.36 6 -5 6 C-5 5.34 -5 4.68 -5 4 C-4.34 4 -3.68 4 -3 4 C-3 3.34 -3 2.68 -3 2 C-2.01 1.34 -1.02 0.68 0 0 Z " fill="#A451A4" transform="translate(89,64)"/>
<path d="M0 0 C2 0 2 0 4.5 2.43 C5.32 3.28 6.15 4.12 7 5 C7.66 5.33 8.32 5.66 9 6 C9 6.66 9 7.32 9 8 C8.01 8.33 7.02 8.66 6 9 C5.01 8.34 4.02 7.68 3 7 C3 6.01 3 5.02 3 4 C2.01 4 1.02 4 0 4 C0 2.68 0 1.36 0 0 Z " fill="#5661AA" transform="translate(63,152)"/>
<path d="M0 0 C1.98 0 3.96 0 6 0 C6 0.33 6 0.66 6 1 C7.65 1.33 9.3 1.66 11 2 C11 2.66 11 3.32 11 4 C7.7 4 4.4 4 1 4 C0.67 2.68 0.34 1.36 0 0 Z " fill="#844F8F" transform="translate(149,126)"/>
<path d="M0 0 C1.87 0.87 1.87 0.87 3.87 2.87 C3.5 5 3.5 5 2.87 6.87 C2.54 5.55 2.21 4.23 1.87 2.87 C-0.10 2.87 -2.08 2.87 -4.12 2.87 C-4.45 4.52 -4.78 6.17 -5.12 7.87 C-5.87 6.12 -5.87 6.12 -6.12 3.87 C-3.16 -0.18 -3.16 -0.18 0 0 Z " fill="#866D9B" transform="translate(149.12,114.12)"/>
<path d="M0 0 C0.66 0 1.32 0 2 0 C2 1.98 2 3.96 2 6 C2.66 6 3.32 6 4 6 C4 6.66 4 7.32 4 8 C4.66 8 5.32 8 6 8 C6 8.66 6 9.32 6 10 C4.68 10 3.36 10 2 10 C2 9.34 2 8.68 2 8 C1.34 8 0.68 8 0 8 C0 5.36 0 2.72 0 0 Z " fill="#7964A0" transform="translate(124,186)"/>
<path d="M0 0 C0.66 0.66 1.32 1.32 2 2 C1.01 3.98 0.02 5.96 -1 8 C-1.66 8 -2.32 8 -3 8 C-3.33 8.99 -3.66 9.98 -4 11 C-5.93 11.81 -5.93 11.81 -8 12 C-8.66 11.34 -9.32 10.68 -10 10 C-9.07 9.60 -8.14 9.21 -7.18 8.81 C-3.73 6.85 -2.70 5.50 -1 2 C-0.67 1.34 -0.34 0.68 0 0 Z " fill="#F9C9B5" transform="translate(171,123)"/>
<path d="M0 0 C0.99 0.99 1.98 1.98 3 3 C1.25 5.06 1.25 5.06 -1 7 C-3.25 6.75 -3.25 6.75 -5 6 C-3.35 4.02 -1.7 2.04 0 0 Z " fill="#433A85" transform="translate(118,93)"/>
<path d="M0 0 C3.3 0 6.6 0 10 0 C10 0.66 10 1.32 10 2 C6.04 2.66 2.08 3.32 -2 4 C-2 3.34 -2 2.68 -2 2 C-1.34 2 -0.68 2 0 2 C0 1.34 0 0.68 0 0 Z " fill="#433C84" transform="translate(124,84)"/>
<path d="M0 0 C3.96 0 7.92 0 12 0 C12 0.33 12 0.66 12 1 C10.08 1.50 8.16 2.00 6.25 2.5 C4.64 2.91 4.64 2.91 3.01 3.34 C0 4 0 4 -4 4 C-4 3.34 -4 2.68 -4 2 C-2.68 2 -1.36 2 0 2 C0 1.34 0 0.68 0 0 Z " fill="#944EA4" transform="translate(108,54)"/>
<path d="M0 0 C2.64 0 5.28 0 8 0 C7.67 0.66 7.34 1.32 7 2 C5.35 2 3.7 2 2 2 C2 3.98 2 5.96 2 8 C1.34 7.67 0.68 7.34 0 7 C-1.26 2.52 -1.26 2.52 0 0 Z " fill="#E9BF8D" transform="translate(122,204)"/>
<path d="M0 0 C0.66 0.33 1.32 0.66 2 1 C0.68 5.29 -0.64 9.58 -2 14 C-2.33 14 -2.66 14 -3 14 C-3.29 8.32 -3.00 5.00 0 0 Z " fill="#573373" transform="translate(122,148)"/>
<path d="M0 0 C1.65 0.99 3.3 1.98 5 3 C2.43 5.56 0.52 5.54 -3 6 C-3 4.68 -3 3.36 -3 2 C-2.01 1.34 -1.02 0.68 0 0 Z " fill="#C75C86" transform="translate(143,135)"/>
<path d="M0 0 C0.99 0.33 1.98 0.66 3 1 C3 2.65 3 4.3 3 6 C0.62 6.18 0.62 6.18 -2 6 C-2.66 5.01 -3.32 4.02 -4 3 C-3.34 3 -2.68 3 -2 3 C-1.34 2.01 -0.68 1.02 0 0 Z " fill="#6E468C" transform="translate(155,109)"/>
<path d="M0 0 C2.31 -0.31 2.31 -0.31 5 0 C6.87 2.31 6.87 2.31 8 5 C7.67 5.99 7.34 6.98 7 8 C4.5 6.18 4.5 6.18 2 4 C2 3.01 2 2.02 2 1 C1.34 0.67 0.68 0.34 0 0 Z " fill="#493F8C" transform="translate(82,105)"/>
<path d="M0 0 C3.63 0 7.26 0 11 0 C11.33 0.66 11.66 1.32 12 2 C5.56 2.49 5.56 2.49 -1 3 C-0.67 2.01 -0.34 1.02 0 0 Z " fill="#403882" transform="translate(93,88)"/>
<path d="M0 0 C0.99 0 1.98 0 3 0 C4.38 1.53 4.38 1.53 5.68 3.5 C6.12 4.14 6.56 4.79 7.01 5.46 C7.33 5.97 7.66 6.47 8 7 C7.67 7.66 7.34 8.32 7 9 C6.01 8.67 5.02 8.34 4 8 C4 6.68 4 5.36 4 4 C2.68 4 1.36 4 0 4 C0 2.68 0 1.36 0 0 Z " fill="#E7B879" transform="translate(208,72)"/>
<path d="M0 0 C1.98 0 3.96 0 6 0 C5.01 0.33 4.02 0.66 3 1 C2.26 3.01 2.26 3.01 2 5 C-0.64 5 -3.28 5 -6 5 C-5.34 4.34 -4.68 3.68 -4 3 C-2.68 3 -1.36 3 0 3 C0 2.01 0 1.02 0 0 Z " fill="#BD9377" transform="translate(160,59)"/>
<path d="M0 0 C3.3 0 6.6 0 10 0 C10 0.99 10 1.98 10 3 C6.7 2.67 3.4 2.34 0 2 C0 1.34 0 0.68 0 0 Z " fill="#734C8F" transform="translate(134,84)"/>
<path d="M0 0 C0 1.98 0 3.96 0 6 C-1.32 6 -2.64 6 -4 6 C-4 4.68 -4 3.36 -4 2 C-4.66 2 -5.32 2 -6 2 C-6 1.34 -6 0.68 -6 0 C-3.50 -1.24 -2.58 -0.77 0 0 Z " fill="#F3798E" transform="translate(168,46)"/>
<path d="M0 0 C3.67 0.70 6.73 2.18 10 4 C10.33 4.66 10.66 5.32 11 6 C7.93 6.25 6.42 6.27 3.81 4.56 C3.21 4.04 2.61 3.53 2 3 C1.34 2.67 0.68 2.34 0 2 C0 1.34 0 0.68 0 0 Z " fill="#5161B5" transform="translate(74,162)"/>
<path d="M0 0 C0.33 1.65 0.66 3.3 1 5 C0.01 5.33 -0.98 5.66 -2 6 C-2 5.34 -2 4.68 -2 4 C-2.66 4 -3.32 4 -4 4 C-4 3.34 -4 2.68 -4 2 C-5.98 2 -7.96 2 -10 2 C-10 1.67 -10 1.34 -10 1 C-2.25 0 -2.25 0 0 0 Z " fill="#C8698D" transform="translate(154,144)"/>
<path d="M0 0 C0.83 1.23 0.83 1.23 1.68 2.5 C3.74 5.27 3.74 5.27 6.75 5.31 C7.49 5.20 8.23 5.10 9 5 C8.67 5.99 8.34 6.98 8 8 C2.58 7.39 2.58 7.39 0.06 5.68 C-1 4 -1 4 -0.68 1.81 C-0.46 1.21 -0.23 0.61 0 0 Z " fill="#B3AEDC" transform="translate(95,122)"/>
<path d="M0 0 C1.51 1.20 1.51 1.20 3 3 C3.07 5.26 3.07 5.26 2.68 7.68 C2.50 8.89 2.50 8.89 2.32 10.13 C2.21 10.75 2.11 11.36 2 12 C1.67 12 1.34 12 1 12 C1 9.69 1 7.38 1 5 C0.34 5 -0.32 5 -1 5 C-1.33 5.66 -1.66 6.32 -2 7 C-1.12 1.12 -1.12 1.12 0 0 Z " fill="#494180" transform="translate(111,107)"/>
<path d="M0 0 C0.66 0 1.32 0 2 0 C1.67 3.63 1.34 7.26 1 11 C0.01 11 -0.98 11 -2 11 C-1.85 9.54 -1.71 8.08 -1.56 6.62 C-1.48 5.81 -1.40 5.00 -1.31 4.16 C-1 2 -1 2 0 0 Z " fill="#AE4E96" transform="translate(53,85)"/>
<path d="M0 0 C0.99 0.33 1.98 0.66 3 1 C3 2.32 3 3.64 3 5 C3.66 5 4.32 5 5 5 C5.33 4.34 5.66 3.68 6 3 C6 3.66 6 4.32 6 5 C6.66 5 7.32 5 8 5 C8 5.66 8 6.32 8 7 C3.52 7.36 3.52 7.36 1.18 5.75 C0 4 0 4 0 0 Z " fill="#D4787E" transform="translate(161,47)"/>
<path d="M0 0 C0.99 0.33 1.98 0.66 3 1 C3.33 1.99 3.66 2.98 4 4 C3.34 4 2.68 4 2 4 C2 4.66 2 5.32 2 6 C0.68 6 -0.64 6 -2 6 C-2 4.68 -2 3.36 -2 2 C-1.34 2 -0.68 2 0 2 C0 1.34 0 0.68 0 0 Z " fill="#E94379" transform="translate(132,142)"/>
<path d="M0 0 C0.66 0 1.32 0 2 0 C0.41 4.03 -1.28 8.01 -3 12 C-3.33 12 -3.66 12 -4 12 C-4 9.36 -4 6.72 -4 4 C-3.34 4 -2.68 4 -2 4 C-2 3.34 -2 2.68 -2 2 C-1.34 2 -0.68 2 0 2 C0 1.34 0 0.68 0 0 Z " fill="#9A4EA8" transform="translate(68,88)"/>
<path d="M0 0 C0.66 0 1.32 0 2 0 C2 1.32 2 2.64 2 4 C1.34 4 0.68 4 0 4 C0 4.66 0 5.32 0 6 C-1.32 6 -2.64 6 -4 6 C-4 4.68 -4 3.36 -4 2 C-2.68 2 -1.36 2 0 2 C0 1.34 0 0.68 0 0 Z " fill="#393A9A" transform="translate(90,70)"/>
<path d="M0 0 C0 2.97 0 5.94 0 9 C-0.99 8.67 -1.98 8.34 -3 8 C-3.68 5.68 -3.68 5.68 -4 3 C-1.72 0 -1.72 0 0 0 Z " fill="#BE6886" transform="translate(161,154)"/>
<path d="M0 0 C0.66 0.66 1.32 1.32 2 2 C-1.37 4.21 -4.06 5.23 -8 6 C-8.33 6.66 -8.66 7.32 -9 8 C-9.99 7.01 -10.98 6.02 -12 5 C-11.30 4.80 -10.60 4.61 -9.88 4.41 C-8.97 4.15 -8.06 3.89 -7.12 3.62 C-6.22 3.36 -5.31 3.11 -4.38 2.85 C-1.85 2.13 -1.85 2.13 0 0 Z " fill="#C2B9E5" transform="translate(113,149)"/>
<path d="M0 0 C0.33 0.66 0.66 1.32 1 2 C3.02 2.65 3.02 2.65 5 3 C2.09 4.25 0.20 5 -3 5 C-3.33 4.01 -3.66 3.02 -4 2 C-2.68 1.34 -1.36 0.68 0 0 Z " fill="#CE608D" transform="translate(150,139)"/>
<path d="M0 0 C3.26 0.56 4.82 1.49 7 4 C6.01 4.66 5.02 5.32 4 6 C3.34 5.01 2.68 4.02 2 3 C1.34 4.32 0.68 5.64 0 7 C0 4.69 0 2.38 0 0 Z " fill="#5A548A" transform="translate(108,134)"/>
<path d="M0 0 C1.65 0.33 3.3 0.66 5 1 C4.67 1.99 4.34 2.98 4 4 C3.01 4 2.02 4 1 4 C0.67 4.66 0.34 5.32 0 6 C-0.66 6 -1.32 6 -2 6 C-1.34 4.02 -0.68 2.04 0 0 Z " fill="#CD9F6C" transform="translate(176,116)"/>
<path d="M0 0 C1.98 0.49 1.98 0.49 4 1 C4.33 2.65 4.66 4.3 5 6 C3 5 1 4 -1 3 C-0.67 2.01 -0.34 1.02 0 0 Z " fill="#DEB9E9" transform="translate(146,99)"/>
<path d="M0 0 C0 0.66 0 1.32 0 2 C-1.65 2.33 -3.3 2.66 -5 3 C-5 3.66 -5 4.32 -5 5 C-5.66 5 -6.32 5 -7 5 C-6.62 2.56 -6.62 2.56 -6 0 C-3.50 -1.24 -2.58 -0.77 0 0 Z " fill="#BDB7E8" transform="translate(126,98)"/>
<path d="M0 0 C-1 3 -1 3 -3 4 C-4.99 4.03 -7.00 4.04 -9 4 C-9.33 3.34 -9.66 2.68 -10 2 C-3.37 0 -3.37 0 0 0 Z " fill="#E6BB88" transform="translate(134,210)"/>
<path d="M0 0 C1.65 0 3.3 0 5 0 C4.01 0.49 4.01 0.49 3 1 C2.53 3.12 2.53 3.12 2.37 5.56 C2.30 6.38 2.22 7.21 2.14 8.06 C2.09 8.70 2.05 9.34 2 10 C1.01 10.33 0.02 10.66 -1 11 C-1 10.34 -1 9.68 -1 9 C-0.34 9 0.32 9 1 9 C0.67 6.03 0.34 3.06 0 0 Z " fill="#D3CEF7" transform="translate(120,130)"/>
<path d="M0 0 C1.32 0 2.64 0 4 0 C4 1.65 4 3.3 4 5 C1.03 4.50 1.03 4.50 -2 4 C-2 3.34 -2 2.68 -2 2 C-1.34 2 -0.68 2 0 2 C0 1.34 0 0.68 0 0 Z " fill="#77419F" transform="translate(162,108)"/>
<path d="M0 0 C1.98 0 3.96 0 6 0 C6 0.66 6 1.32 6 2 C5.34 2 4.68 2 4 2 C4 2.66 4 3.32 4 4 C2.68 4.33 1.36 4.66 0 5 C0 3.35 0 1.7 0 0 Z " fill="#FCB864" transform="translate(126,206)"/>
<path d="M0 0 C3 1 3 1 5 3 C2 5 2 5 -2 5 C-1.34 3.35 -0.68 1.7 0 0 Z " fill="#C66584" transform="translate(137,164)"/>
<path d="M0 0 C0.33 0.66 0.66 1.32 1 2 C0.22 3.72 0.22 3.72 -0.93 5.62 C-1.61 6.73 -2.29 7.85 -3 9 C-4.32 8.34 -5.64 7.68 -7 7 C-6.67 6.01 -6.34 5.02 -6 4 C-6 4.66 -6 5.32 -6 6 C-2.26 4.75 -1.81 3.36 0 0 Z " fill="#D5D2F6" transform="translate(118,141)"/>
<path d="M0 0 C-1.32 0.33 -2.64 0.66 -4 1 C-4 1.99 -4 2.98 -4 4 C-5.65 4.33 -7.3 4.66 -9 5 C-9.33 4.01 -9.66 3.02 -10 2 C-6.49 0.39 -3.85 -0.22 0 0 Z " fill="#BD498F" transform="translate(152,130)"/>
<path d="M0 0 C2.22 1.75 2.94 2.57 3.31 5.43 C2.99 8.06 2.33 9.74 1 12 C0.34 11.67 -0.32 11.34 -1 11 C-0.92 10.37 -0.85 9.74 -0.78 9.10 C-0.68 8.28 -0.59 7.46 -0.5 6.62 C-0.40 5.81 -0.31 5.00 -0.21 4.16 C0.03 2.03 0.03 2.03 0 0 Z " fill="#E3C8F0" transform="translate(152,115)"/>
<path d="M0 0 C1.65 0 3.3 0 5 0 C5 0.99 5 1.98 5 3 C4.01 2.67 3.02 2.34 2 2 C2 3.32 2 4.64 2 6 C0.68 5.34 -0.64 4.68 -2 4 C-1.34 2.68 -0.68 1.36 0 0 Z " fill="#3D3485" transform="translate(123,101)"/>
<path d="M0 0 C-1.32 0.33 -2.64 0.66 -4 1 C-4 1.66 -4 2.32 -4 3 C-6.97 2.50 -6.97 2.50 -10 2 C-6.64 -1.35 -4.35 -1.05 0 0 Z " fill="#AE5297" transform="translate(94,51)"/>
<path d="M0 0 C2.64 0 5.28 0 8 0 C8 0.66 8 1.32 8 2 C6.68 2 5.36 2 4 2 C4 2.66 4 3.32 4 4 C3.34 4 2.68 4 2 4 C2 3.34 2 2.68 2 2 C1.34 2 0.68 2 0 2 C0 1.34 0 0.68 0 0 Z " fill="#CE5C80" transform="translate(128,192)"/>
<path d="M0 0 C0.99 0.33 1.98 0.66 3 1 C2.41 7.15 2.41 7.15 2 9 C1.01 9.49 1.01 9.49 0 10 C0 6.7 0 3.4 0 0 Z " fill="#CE577A" transform="translate(164,154)"/>
<path d="M0 0 C0 0.99 0 1.98 0 3 C-0.66 3 -1.32 3 -2 3 C-2 3.66 -2 4.32 -2 5 C-3.32 5 -4.64 5 -6 5 C-6 4.01 -6 3.02 -6 2 C-2.25 0 -2.25 0 0 0 Z " fill="#433A84" transform="translate(116,151)"/>
<path d="M0 0 C0.99 0.33 1.98 0.66 3 1 C1.68 2.65 0.36 4.3 -1 6 C-1.99 5.67 -2.98 5.34 -4 5 C-4 4.01 -4 3.02 -4 2 C-2.68 2 -1.36 2 0 2 C0 1.34 0 0.68 0 0 Z " fill="#5B367D" transform="translate(128,140)"/>
<path d="M0 0 C1.98 0 3.96 0 6 0 C6 0.66 6 1.32 6 2 C6.66 2.33 7.32 2.66 8 3 C4.23 4.25 2.62 3.37 -1 2 C-0.67 1.34 -0.34 0.68 0 0 Z " fill="#E16C5D" transform="translate(168,132)"/>
<path d="M0 0 C0.66 0 1.32 0 2 0 C2 2.31 2 4.62 2 7 C1.34 7 0.68 7 0 7 C0 6.34 0 5.68 0 5 C-0.66 5 -1.32 5 -2 5 C-1.34 3.35 -0.68 1.7 0 0 Z " fill="#6E428B" transform="translate(159,119)"/>
<path d="M0 0 C2.09 2.35 2.96 3.54 3.18 6.75 C3.09 7.86 3.09 7.86 3 9 C2.01 9 1.02 9 0 9 C0 6.03 0 3.06 0 0 Z " fill="#513293" transform="translate(128,113)"/>
<path d="M0 0 C0.33 0.66 0.66 1.32 1 2 C1.66 2 2.32 2 3 2 C5 5 5 5 5 9 C4.01 9 3.02 9 2 9 C2 7.02 2 5.04 2 3 C1.34 3 0.68 3 0 3 C0 2.01 0 1.02 0 0 Z " fill="#8A5374" transform="translate(154,69)"/>
<path d="M0 0 C0.66 0.33 1.32 0.66 2 1 C2 1.99 2 2.98 2 4 C2.66 4.33 3.32 4.66 4 5 C2.02 5.99 2.02 5.99 0 7 C-0.93 3.98 -1.04 3.13 0 0 Z " fill="#E7AF6B" transform="translate(202,141)"/>
<path d="M0 0 C1.32 0.33 2.64 0.66 4 1 C4 1.99 4 2.98 4 4 C2.02 4 0.04 4 -2 4 C-1.34 2.68 -0.68 1.36 0 0 Z " fill="#CE6C81" transform="translate(157,141)"/>
<path d="M0 0 C1.24 2.49 0.77 3.41 0 6 C-1.32 5.67 -2.64 5.34 -4 5 C-3.68 3.06 -3.68 3.06 -3 1 C-2.01 0.67 -1.02 0.34 0 0 Z " fill="#E16576" transform="translate(164,134)"/>
<path d="M0 0 C0.99 0 1.98 0 3 0 C3 0.66 3 1.32 3 2 C4.32 2.33 5.64 2.66 7 3 C5.35 3 3.7 3 2 3 C2.33 3.99 2.66 4.98 3 6 C2.01 5.67 1.02 5.34 0 5 C0.33 4.34 0.66 3.68 1 3 C0.34 2.67 -0.32 2.34 -1 2 C-0.67 1.34 -0.34 0.68 0 0 Z " fill="#4C4194" transform="translate(118,127)"/>
<path d="M0 0 C0.66 0.66 1.32 1.32 2 2 C1.62 5.12 1.62 5.12 1 8 C0.34 8 -0.32 8 -1 8 C-1.62 5.12 -1.62 5.12 -2 2 C-1.34 1.34 -0.68 0.68 0 0 Z " fill="#734083" transform="translate(165,114)"/>
<path d="M0 0 C0.43 0.95 0.43 0.95 0.87 1.93 C1.82 4.15 1.82 4.15 4 5 C2.68 5.33 1.36 5.66 0 6 C-0.99 4.35 -1.98 2.7 -3 1 C-2.01 0.67 -1.02 0.34 0 0 Z " fill="#7B5696" transform="translate(155,92)"/>
<path d="M0 0 C-8.57 0.28 -8.57 0.28 -12 -2 C-6.84 -3.28 -4.42 -2.94 0 0 Z " fill="#C96788" transform="translate(136,171)"/>
<path d="M0 0 C0.66 0.33 1.32 0.66 2 1 C2.73 3.31 3.40 5.64 4 8 C2.68 7.67 1.36 7.34 0 7 C-0.38 5.00 -0.71 3.00 -1 1 C-0.67 0.67 -0.34 0.34 0 0 Z " fill="#C6547C" transform="translate(136,136)"/>
<path d="M0 0 C0 0.66 0 1.32 0 2 C0.66 2.66 1.32 3.32 2 4 C-0.31 4.33 -2.62 4.66 -5 5 C-5 3.68 -5 2.36 -5 1 C-2 0 -2 0 0 0 Z " fill="#3F3582" transform="translate(119,130)"/>
<path d="M0 0 C0.66 0 1.32 0 2 0 C1.01 2.97 0.02 5.94 -1 9 C-1.33 9 -1.66 9 -2 9 C-2 6.69 -2 4.38 -2 2 C-1.34 2 -0.68 2 0 2 C0 1.34 0 0.68 0 0 Z " fill="#CBA273" transform="translate(172,116)"/>
<path d="M0 0 C1.32 0 2.64 0 4 0 C3.67 1.98 3.34 3.96 3 6 C2.67 5.34 2.34 4.68 2 4 C1.34 4 0.68 4 0 4 C0 2.68 0 1.36 0 0 Z " fill="#D09D50" transform="translate(164,80)"/>
<path d="M0 0 C2.97 0.49 2.97 0.49 6 1 C4.81 2.5 4.81 2.5 3 4 C0.31 4.18 0.31 4.18 -2 4 C-2 3.34 -2 2.68 -2 2 C-1.34 2 -0.68 2 0 2 C0 1.34 0 0.68 0 0 Z " fill="#4B3B85" transform="translate(134,52)"/>
<path d="M0 0 C0.99 0 1.98 0 3 0 C3.33 1.98 3.66 3.96 4 6 C3.01 6.49 3.01 6.49 2 7 C2 6.34 2 5.68 2 5 C1.34 5 0.68 5 0 5 C0 3.35 0 1.7 0 0 Z " fill="#E05684" transform="translate(148,155)"/>
<path d="M0 0 C0.33 1.32 0.66 2.64 1 4 C0.34 4 -0.32 4 -1 4 C-1 4.66 -1 5.32 -1 6 C-2.32 5.67 -3.64 5.34 -5 5 C-3.35 3.35 -1.7 1.7 0 0 Z " fill="#B64E8E" transform="translate(133,138)"/>
<path d="M0 0 C0.33 1.32 0.66 2.64 1 4 C-1.97 3.67 -4.94 3.34 -8 3 C-5.07 1.53 -3.07 0.65 0 0 Z " fill="#FBE9FC" transform="translate(151,122)"/>
<path d="M0 0 C1.46 2.64 2 3.89 2 7 C0.68 6.34 -0.64 5.68 -2 5 C-2 4.01 -2 3.02 -2 2 C-1.34 2 -0.68 2 0 2 C0 1.34 0 0.68 0 0 Z " fill="#4C438D" transform="translate(92,118)"/>
  </g>
</svg>
